<?xml version="1.0" encoding="utf-8"?>
<!-- Generator: Adobe Illustrator 21.0.0, SVG Export Plug-In . SVG Version: 6.00 Build 0)  -->
<svg version="1.1" id="Layer_1" xmlns="http://www.w3.org/2000/svg" xmlns:xlink="http://www.w3.org/1999/xlink" x="0px" y="0px"
	 viewBox="0 0 232.6 103.5" style="enable-background:new 0 0 232.6 103.5;" xml:space="preserve">
<style type="text/css">
	.st0{fill:#00A6AD;}
	.st1{fill:#F7F9F9;}
</style>
<rect x="-4.7" y="-0.6" class="st0" width="242" height="104.7"/>
<g>
	<path class="st1" d="M13.8,49.8c0-1.8,0.3-3.6,1-5.4c0.7-1.8,1.6-3.4,2.9-4.8c1.3-1.4,2.8-2.5,4.6-3.4c1.8-0.9,3.9-1.3,6.2-1.3
		c2.7,0,5.1,0.6,7.1,1.8c2,1.2,3.5,2.8,4.5,4.7l-4.5,3.1c-0.4-0.8-0.9-1.5-1.4-2.1c-0.6-0.6-1.2-1-1.8-1.4c-0.6-0.3-1.3-0.6-2-0.7
		C29.7,40.1,29,40,28.4,40c-1.5,0-2.7,0.3-3.8,0.9c-1.1,0.6-2,1.4-2.7,2.3c-0.7,0.9-1.3,2-1.6,3.2c-0.4,1.2-0.5,2.4-0.5,3.5
		c0,1.3,0.2,2.6,0.6,3.8s1,2.3,1.8,3.2c0.8,0.9,1.7,1.7,2.8,2.2s2.3,0.8,3.5,0.8c0.7,0,1.4-0.1,2.1-0.3c0.7-0.2,1.4-0.4,2.1-0.8
		c0.7-0.4,1.3-0.8,1.8-1.4c0.6-0.6,1-1.3,1.3-2.1l4.7,2.7c-0.5,1.1-1.2,2.1-2,3c-0.9,0.9-1.9,1.6-3,2.2c-1.1,0.6-2.3,1-3.5,1.3
		c-1.3,0.3-2.5,0.5-3.7,0.5c-2.1,0-4.1-0.4-5.8-1.3c-1.8-0.9-3.3-2.1-4.6-3.5c-1.3-1.4-2.3-3.1-3-4.9C14.2,53.6,13.8,51.7,13.8,49.8
		z"/>
	<path class="st1" d="M58.6,65.1c-2.2,0-4.2-0.4-5.9-1.3c-1.8-0.9-3.3-2-4.6-3.4c-1.3-1.4-2.3-3-3-4.9c-0.7-1.8-1-3.7-1-5.6
		c0-2,0.4-3.9,1.1-5.7c0.7-1.8,1.8-3.4,3.1-4.8c1.3-1.4,2.8-2.5,4.6-3.3c1.8-0.8,3.7-1.2,5.8-1.2c2.2,0,4.1,0.4,5.9,1.3
		c1.8,0.9,3.3,2,4.6,3.5c1.3,1.4,2.2,3.1,2.9,4.9c0.7,1.8,1,3.7,1,5.5c0,2-0.4,3.9-1.1,5.7c-0.7,1.8-1.7,3.4-3,4.8
		c-1.3,1.4-2.8,2.5-4.6,3.3C62.6,64.7,60.7,65.1,58.6,65.1z M49.9,50c0,1.3,0.2,2.5,0.6,3.7c0.4,1.2,1,2.3,1.7,3.2s1.7,1.7,2.7,2.2
		c1.1,0.6,2.3,0.8,3.7,0.8c1.4,0,2.6-0.3,3.7-0.9c1.1-0.6,2-1.3,2.7-2.3c0.7-1,1.3-2,1.7-3.2c0.4-1.2,0.6-2.4,0.6-3.6
		c0-1.3-0.2-2.5-0.6-3.7c-0.4-1.2-1-2.3-1.7-3.2c-0.7-0.9-1.7-1.7-2.7-2.2S59.9,40,58.6,40c-1.4,0-2.6,0.3-3.7,0.9
		c-1.1,0.6-2,1.3-2.7,2.3c-0.7,0.9-1.3,2-1.7,3.2C50.1,47.6,49.9,48.8,49.9,50z"/>
	<path class="st1" d="M85.1,45.8v19.1h-5.8V35.1h4.5l15.5,19.6V35.1h5.8v29.8h-4.7L85.1,45.8z"/>
	<path class="st1" d="M135.3,40.2h-9.5v24.7H120V40.2h-9.5v-5.1h24.8V40.2z"/>
	<path class="st1" d="M146.2,35.1h5.1l11.3,29.8h-6l-2.8-7.4h-10.4l-2.7,7.4h-6L146.2,35.1z M152.9,53.4l-4.1-11.7l-4.3,11.7H152.9z
		"/>
	<path class="st1" d="M164.7,49.8c0-1.8,0.3-3.6,1-5.4c0.7-1.8,1.6-3.4,2.9-4.8c1.3-1.4,2.8-2.5,4.6-3.4c1.8-0.9,3.9-1.3,6.2-1.3
		c2.7,0,5.1,0.6,7.1,1.8c2,1.2,3.5,2.8,4.5,4.7l-4.5,3.1c-0.4-0.8-0.9-1.5-1.4-2.1c-0.6-0.6-1.2-1-1.8-1.4c-0.6-0.3-1.3-0.6-2-0.7
		s-1.4-0.2-2.1-0.2c-1.5,0-2.7,0.3-3.8,0.9c-1.1,0.6-2,1.4-2.7,2.3c-0.7,0.9-1.3,2-1.6,3.2c-0.4,1.2-0.5,2.4-0.5,3.5
		c0,1.3,0.2,2.6,0.6,3.8c0.4,1.2,1,2.3,1.8,3.2s1.7,1.7,2.8,2.2c1.1,0.6,2.3,0.8,3.5,0.8c0.7,0,1.4-0.1,2.1-0.3
		c0.7-0.2,1.4-0.4,2.1-0.8s1.3-0.8,1.8-1.4c0.6-0.6,1-1.3,1.3-2.1l4.7,2.7c-0.5,1.1-1.2,2.1-2,3c-0.9,0.9-1.9,1.6-3,2.2
		c-1.1,0.6-2.3,1-3.5,1.3c-1.3,0.3-2.5,0.5-3.7,0.5c-2.1,0-4.1-0.4-5.8-1.3c-1.8-0.9-3.3-2.1-4.6-3.5c-1.3-1.4-2.3-3.1-3-4.9
		C165.1,53.6,164.7,51.7,164.7,49.8z"/>
	<path class="st1" d="M219,40.2h-9.5v24.7h-5.8V40.2h-9.5v-5.1H219V40.2z"/>
</g>
</svg>
