<?xml version="1.0" encoding="utf-8"?>
<!-- Generator: Adobe Illustrator 21.0.0, SVG Export Plug-In . SVG Version: 6.00 Build 0)  -->
<svg version="1.1" id="Layer_1" xmlns="http://www.w3.org/2000/svg" xmlns:xlink="http://www.w3.org/1999/xlink" x="0px" y="0px"
	 viewBox="0 0 232.6 103.5" style="enable-background:new 0 0 232.6 103.5;" xml:space="preserve">
<style type="text/css">
	.st0{fill:#FFFFFF;stroke:#00A6AD;stroke-width:5;stroke-miterlimit:10;}
	.st1{fill:#00A6AD;}
</style>
<rect x="2.5" y="2.5" class="st0" width="227.6" height="98.5"/>
<g>
	<path class="st1" d="M27,27.9l11.5,32.2L50,27.9h8.7L42,70.5h-7L18.3,27.9H27z"/>
	<path class="st1" d="M66.2,70.5V27.9h8.3v42.6H66.2z"/>
	<path class="st1" d="M86.4,70.5V27.9h15.5c3.5,0,6.5,0.6,9.2,1.7c2.6,1.1,4.8,2.6,6.6,4.6c1.8,1.9,3.1,4.2,4,6.8s1.3,5.3,1.3,8.3
		c0,3.2-0.5,6.2-1.5,8.8c-1,2.6-2.4,4.9-4.2,6.7c-1.8,1.9-4,3.3-6.6,4.3c-2.6,1-5.5,1.5-8.7,1.5H86.4z M114.5,49.2
		c0-2-0.3-3.9-0.8-5.6c-0.6-1.7-1.4-3.2-2.5-4.4c-1.1-1.2-2.4-2.2-4-2.9c-1.6-0.7-3.4-1-5.4-1h-7.2v28.1h7.2c2,0,3.8-0.4,5.4-1.1
		s2.9-1.7,4-3s1.9-2.8,2.4-4.5C114.2,53,114.5,51.2,114.5,49.2z"/>
	<path class="st1" d="M161.9,63.3v7.3h-29.6V27.9h29v7.3h-20.8v10.3h17.9v6.7h-17.9v11.1H161.9z"/>
	<path class="st1" d="M188.7,70.8c-3.1,0-6-0.6-8.5-1.8c-2.5-1.2-4.7-2.8-6.5-4.9c-1.8-2-3.2-4.3-4.2-6.9c-1-2.6-1.5-5.3-1.5-8
		c0-2.8,0.5-5.6,1.6-8.2c1.1-2.6,2.5-4.9,4.4-6.9c1.9-2,4.1-3.6,6.6-4.8c2.6-1.2,5.3-1.8,8.3-1.8c3.1,0,5.9,0.6,8.4,1.9
		c2.5,1.3,4.7,2.9,6.5,4.9s3.2,4.4,4.2,7c1,2.6,1.5,5.2,1.5,7.9c0,2.8-0.5,5.6-1.6,8.1s-2.5,4.9-4.3,6.8c-1.8,2-4,3.6-6.6,4.7
		C194.5,70.3,191.7,70.8,188.7,70.8z M176.3,49.2c0,1.8,0.3,3.6,0.8,5.3c0.6,1.7,1.4,3.2,2.4,4.6c1.1,1.3,2.4,2.4,3.9,3.2
		c1.5,0.8,3.3,1.2,5.3,1.2c2,0,3.8-0.4,5.3-1.2c1.5-0.8,2.8-1.9,3.9-3.3c1.1-1.4,1.9-2.9,2.4-4.6s0.8-3.4,0.8-5.2
		c0-1.8-0.3-3.6-0.9-5.3c-0.6-1.7-1.4-3.2-2.5-4.6c-1.1-1.3-2.4-2.4-3.9-3.1c-1.5-0.8-3.3-1.2-5.2-1.2c-2,0-3.8,0.4-5.3,1.2
		c-1.6,0.8-2.9,1.9-3.9,3.2c-1,1.3-1.8,2.9-2.4,4.6C176.6,45.8,176.3,47.5,176.3,49.2z"/>
</g>
</svg>
