<?xml version="1.0" encoding="utf-8"?>
<!-- Generator: Adobe Illustrator 21.0.0, SVG Export Plug-In . SVG Version: 6.00 Build 0)  -->
<svg version="1.1" id="Layer_1" xmlns="http://www.w3.org/2000/svg" xmlns:xlink="http://www.w3.org/1999/xlink" x="0px" y="0px"
	 viewBox="0 0 232.6 103.5" style="enable-background:new 0 0 232.6 103.5;" xml:space="preserve">
<style type="text/css">
	.st0{fill:#00A6AD;}
	.st1{fill:#F7F9F9;}
</style>
<rect x="-4.7" y="-0.6" class="st0" width="242" height="104.7"/>
<g>
	<path class="st1" d="M31.5,28.7l11.1,31.1l11-31.1H62L46,69.9h-6.7L23.1,28.7H31.5z"/>
	<path class="st1" d="M68.8,69.9V28.7h8v41.2H68.8z"/>
	<path class="st1" d="M87.7,69.9V28.7h15c3.4,0,6.3,0.5,8.8,1.6c2.5,1.1,4.6,2.6,6.4,4.4c1.7,1.9,3,4,3.8,6.5c0.8,2.5,1.3,5.2,1.3,8
		c0,3.1-0.5,6-1.4,8.5s-2.3,4.7-4.1,6.5c-1.8,1.8-3.9,3.2-6.4,4.2c-2.5,1-5.3,1.5-8.4,1.5H87.7z M114.9,49.3c0-2-0.3-3.8-0.8-5.5
		c-0.5-1.7-1.3-3.1-2.4-4.3c-1-1.2-2.3-2.1-3.9-2.8c-1.5-0.7-3.3-1-5.2-1h-7v27.1h7c2,0,3.7-0.3,5.2-1c1.5-0.7,2.8-1.7,3.8-2.9
		c1-1.2,1.8-2.7,2.3-4.3C114.6,53,114.9,51.2,114.9,49.3z"/>
	<path class="st1" d="M160.1,62.9v7h-28.6V28.7h28.1v7h-20.1v9.9h17.3v6.5h-17.3v10.7H160.1z"/>
	<path class="st1" d="M185.4,70.2c-3,0-5.8-0.6-8.2-1.8c-2.5-1.2-4.6-2.7-6.3-4.7c-1.8-2-3.1-4.2-4.1-6.7c-1-2.5-1.5-5.1-1.5-7.7
		c0-2.7,0.5-5.4,1.5-7.9c1-2.5,2.4-4.7,4.2-6.7c1.8-1.9,3.9-3.5,6.4-4.6c2.5-1.1,5.2-1.7,8.1-1.7c3,0,5.7,0.6,8.1,1.8
		c2.5,1.2,4.6,2.8,6.3,4.8c1.7,2,3.1,4.2,4.1,6.7c1,2.5,1.5,5.1,1.5,7.7c0,2.7-0.5,5.4-1.5,7.9c-1,2.5-2.4,4.7-4.2,6.6
		s-3.9,3.4-6.4,4.6S188.3,70.2,185.4,70.2z M173.5,49.3c0,1.8,0.3,3.5,0.8,5.2c0.5,1.7,1.3,3.1,2.3,4.4c1,1.3,2.3,2.3,3.8,3.1
		s3.2,1.2,5.1,1.2c1.9,0,3.6-0.4,5.1-1.2c1.5-0.8,2.7-1.8,3.8-3.2c1-1.3,1.8-2.8,2.3-4.4c0.5-1.6,0.8-3.3,0.8-5
		c0-1.8-0.3-3.5-0.8-5.2c-0.6-1.7-1.4-3.1-2.4-4.4c-1-1.3-2.3-2.3-3.8-3c-1.5-0.8-3.2-1.1-5-1.1c-1.9,0-3.7,0.4-5.2,1.2
		c-1.5,0.8-2.8,1.8-3.8,3.1c-1,1.3-1.8,2.8-2.3,4.4C173.7,46,173.5,47.6,173.5,49.3z"/>
</g>
</svg>
