<?xml version="1.0" encoding="utf-8"?>
<!-- Generator: Adobe Illustrator 21.0.0, SVG Export Plug-In . SVG Version: 6.00 Build 0)  -->
<svg version="1.1" id="Layer_1" xmlns="http://www.w3.org/2000/svg" xmlns:xlink="http://www.w3.org/1999/xlink" x="0px" y="0px"
	 viewBox="0 0 232.6 103.5" style="enable-background:new 0 0 232.6 103.5;" xml:space="preserve">
<style type="text/css">
	.st0{fill:#00A6AD;}
	.st1{fill:#F7F9F9;}
</style>
<rect x="-4.7" y="-0.6" class="st0" width="242" height="104.7"/>
<g>
	<path class="st1" d="M38.9,31.9H45l13.5,35.5h-7.1l-3.3-8.9H35.7l-3.3,8.9h-7.1L38.9,31.9z M46.8,53.7l-4.9-13.9l-5.1,13.9H46.8z"
		/>
	<path class="st1" d="M93,58.3c0,1.5-0.3,2.8-0.9,4c-0.6,1.1-1.4,2.1-2.5,2.8c-1,0.8-2.3,1.4-3.6,1.8c-1.4,0.4-2.9,0.6-4.4,0.6H64.4
		V31.9h19c1.2,0,2.3,0.3,3.3,0.8c1,0.5,1.9,1.2,2.5,2.1c0.7,0.9,1.2,1.8,1.6,2.9c0.4,1.1,0.6,2.2,0.6,3.3c0,1.7-0.4,3.4-1.3,4.9
		c-0.9,1.5-2.1,2.6-3.8,3.4c2,0.6,3.6,1.7,4.8,3.2C92.4,54,93,55.9,93,58.3z M71.3,37.8v9h9.2c1.2,0,2.2-0.4,3-1.2
		c0.8-0.8,1.2-1.9,1.2-3.3c0-1.4-0.4-2.5-1.1-3.3c-0.8-0.8-1.7-1.2-2.8-1.2H71.3z M86,57c0-0.6-0.1-1.2-0.3-1.8
		c-0.2-0.6-0.5-1.1-0.9-1.5c-0.4-0.4-0.8-0.8-1.3-1s-1-0.4-1.6-0.4H71.3v9.3h10.3c0.6,0,1.2-0.1,1.8-0.3c0.5-0.2,1-0.6,1.4-1
		c0.4-0.4,0.7-0.9,1-1.5C85.9,58.2,86,57.6,86,57z"/>
	<path class="st1" d="M115.5,67.7c-2.6,0-5-0.5-7.1-1.5c-2.1-1-3.9-2.4-5.5-4c-1.5-1.7-2.7-3.6-3.5-5.8c-0.8-2.2-1.3-4.4-1.3-6.6
		c0-2.4,0.4-4.6,1.3-6.8c0.9-2.2,2.1-4.1,3.7-5.8c1.5-1.7,3.4-3,5.5-4c2.1-1,4.5-1.5,7-1.5c2.6,0,4.9,0.5,7,1.6
		c2.1,1,3.9,2.4,5.4,4.1c1.5,1.7,2.7,3.6,3.5,5.8c0.8,2.2,1.3,4.4,1.3,6.6c0,2.4-0.4,4.6-1.3,6.8c-0.9,2.1-2.1,4-3.6,5.7
		c-1.5,1.6-3.4,3-5.5,4C120.4,67.2,118,67.7,115.5,67.7z M105.2,49.7c0,1.5,0.2,3,0.7,4.5c0.5,1.4,1.1,2.7,2,3.8
		c0.9,1.1,2,2,3.3,2.6c1.3,0.7,2.7,1,4.4,1c1.7,0,3.1-0.3,4.4-1c1.3-0.7,2.4-1.6,3.3-2.7c0.9-1.1,1.5-2.4,2-3.8
		c0.5-1.4,0.7-2.9,0.7-4.3c0-1.5-0.2-3-0.7-4.5c-0.5-1.4-1.2-2.7-2.1-3.8s-2-2-3.3-2.6s-2.7-1-4.3-1c-1.7,0-3.2,0.3-4.5,1
		c-1.3,0.7-2.4,1.6-3.3,2.7c-0.9,1.1-1.5,2.4-2,3.8C105.5,46.8,105.2,48.2,105.2,49.7z"/>
	<path class="st1" d="M155.2,61.6c1.6,0,3-0.3,4.1-1c1.1-0.7,2-1.5,2.7-2.6c0.7-1.1,1.2-2.3,1.4-3.7c0.3-1.4,0.4-2.8,0.4-4.3V31.9
		h6.8V50c0,2.4-0.3,4.7-0.9,6.9c-0.6,2.1-1.5,4-2.8,5.6s-2.9,2.9-4.8,3.8c-2,0.9-4.3,1.4-7,1.4c-2.8,0-5.2-0.5-7.2-1.5
		c-2-1-3.6-2.3-4.8-3.9c-1.2-1.6-2.1-3.5-2.7-5.6c-0.6-2.1-0.8-4.4-0.8-6.6V31.9h6.9V50c0,1.5,0.1,2.9,0.4,4.3
		c0.3,1.4,0.8,2.6,1.4,3.7c0.7,1.1,1.6,1.9,2.7,2.6C152.2,61.2,153.6,61.6,155.2,61.6z"/>
	<path class="st1" d="M206.2,38h-11.3v29.5H188V38h-11.3v-6h29.5V38z"/>
</g>
</svg>
