<?xml version="1.0" encoding="utf-8"?>
<!-- Generator: Adobe Illustrator 21.0.0, SVG Export Plug-In . SVG Version: 6.00 Build 0)  -->
<svg version="1.1" id="Layer_1" xmlns="http://www.w3.org/2000/svg" xmlns:xlink="http://www.w3.org/1999/xlink" x="0px" y="0px"
	 viewBox="0 0 232.6 103.5" style="enable-background:new 0 0 232.6 103.5;" xml:space="preserve">
<style type="text/css">
	.st0{fill:#00A6AD;}
	.st1{fill:#F7F9F9;}
</style>
<rect x="-4.7" y="-0.6" class="st0" width="242" height="104.7"/>
<g>
	<path class="st1" d="M29.2,67.4V31.9h15c1.6,0,3.1,0.3,4.5,1c1.4,0.7,2.6,1.6,3.6,2.7c1,1.1,1.8,2.4,2.3,3.8
		c0.6,1.4,0.8,2.8,0.8,4.3c0,1.5-0.3,3-0.8,4.4c-0.5,1.4-1.3,2.7-2.3,3.8c-1,1.1-2.1,2-3.5,2.6c-1.4,0.7-2.9,1-4.5,1h-8.4v11.9H29.2
		z M36.1,49.5h8c1.3,0,2.3-0.5,3.2-1.5c0.9-1,1.3-2.4,1.3-4.2c0-0.9-0.1-1.7-0.4-2.4c-0.3-0.7-0.6-1.3-1-1.8
		c-0.4-0.5-0.9-0.9-1.5-1.1C45,38.1,44.4,38,43.8,38h-7.7V49.5z"/>
	<path class="st1" d="M92.2,31.9v35.5h-6.8V52.3H69.2v15.1h-6.9V31.9h6.9v14.4h16.1V31.9H92.2z"/>
	<path class="st1" d="M116.7,67.7c-2.6,0-5-0.5-7.1-1.5c-2.1-1-3.9-2.4-5.5-4c-1.5-1.7-2.7-3.6-3.5-5.8c-0.8-2.2-1.3-4.4-1.3-6.6
		c0-2.4,0.4-4.6,1.3-6.8c0.9-2.2,2.1-4.1,3.7-5.8c1.5-1.7,3.4-3,5.5-4c2.1-1,4.5-1.5,7-1.5c2.6,0,4.9,0.5,7,1.6
		c2.1,1,3.9,2.4,5.4,4.1c1.5,1.7,2.7,3.6,3.5,5.8c0.8,2.2,1.3,4.4,1.3,6.6c0,2.4-0.4,4.6-1.3,6.8c-0.9,2.1-2.1,4-3.6,5.7
		c-1.5,1.6-3.4,3-5.5,4C121.6,67.2,119.2,67.7,116.7,67.7z M106.4,49.7c0,1.5,0.2,3,0.7,4.5c0.5,1.4,1.1,2.7,2,3.8
		c0.9,1.1,2,2,3.3,2.6c1.3,0.7,2.7,1,4.4,1c1.7,0,3.1-0.3,4.4-1c1.3-0.7,2.4-1.6,3.3-2.7c0.9-1.1,1.5-2.4,2-3.8
		c0.5-1.4,0.7-2.9,0.7-4.3c0-1.5-0.2-3-0.7-4.5c-0.5-1.4-1.2-2.7-2.1-3.8s-2-2-3.3-2.6c-1.3-0.6-2.7-1-4.3-1c-1.7,0-3.2,0.3-4.5,1
		c-1.3,0.7-2.4,1.6-3.3,2.7c-0.9,1.1-1.5,2.4-2,3.8C106.7,46.8,106.4,48.2,106.4,49.7z"/>
	<path class="st1" d="M166.3,38h-11.3v29.5h-6.9V38h-11.3v-6h29.5V38z"/>
	<path class="st1" d="M186.2,67.7c-2.6,0-5-0.5-7.1-1.5c-2.1-1-3.9-2.4-5.5-4c-1.5-1.7-2.7-3.6-3.5-5.8c-0.8-2.2-1.3-4.4-1.3-6.6
		c0-2.4,0.4-4.6,1.3-6.8c0.9-2.2,2.1-4.1,3.7-5.8c1.5-1.7,3.4-3,5.5-4c2.1-1,4.5-1.5,7-1.5c2.6,0,4.9,0.5,7,1.6
		c2.1,1,3.9,2.4,5.4,4.1c1.5,1.7,2.7,3.6,3.5,5.8c0.8,2.2,1.3,4.4,1.3,6.6c0,2.4-0.4,4.6-1.3,6.8c-0.9,2.1-2.1,4-3.6,5.7
		c-1.5,1.6-3.4,3-5.5,4C191,67.2,188.7,67.7,186.2,67.7z M175.9,49.7c0,1.5,0.2,3,0.7,4.5c0.5,1.4,1.1,2.7,2,3.8
		c0.9,1.1,2,2,3.3,2.6c1.3,0.7,2.7,1,4.4,1c1.7,0,3.1-0.3,4.4-1c1.3-0.7,2.4-1.6,3.3-2.7c0.9-1.1,1.5-2.4,2-3.8
		c0.5-1.4,0.7-2.9,0.7-4.3c0-1.5-0.2-3-0.7-4.5c-0.5-1.4-1.2-2.7-2.1-3.8s-2-2-3.3-2.6s-2.7-1-4.3-1c-1.7,0-3.2,0.3-4.5,1
		c-1.3,0.7-2.4,1.6-3.3,2.7c-0.9,1.1-1.5,2.4-2,3.8C176.1,46.8,175.9,48.2,175.9,49.7z"/>
</g>
</svg>
