<?xml version="1.0" encoding="utf-8"?>
<!-- Generator: Adobe Illustrator 21.0.0, SVG Export Plug-In . SVG Version: 6.00 Build 0)  -->
<svg version="1.1" id="Layer_1" xmlns="http://www.w3.org/2000/svg" xmlns:xlink="http://www.w3.org/1999/xlink" x="0px" y="0px"
	 viewBox="0 0 1004.3 179.2" style="enable-background:new 0 0 1004.3 179.2;" xml:space="preserve">
<style type="text/css">
	.st0{fill:#FFFFFF;}
	.st1{fill:none;}
	.st2{fill:#00A6AD;}
	.st3{fill:#FFFFFF;stroke:#00A6AD;stroke-width:5;stroke-miterlimit:10;}
	.st4{fill:#00A6AD;stroke:#00A6AD;stroke-width:5;stroke-miterlimit:10;}
	.st5{stroke:#00A6AD;stroke-width:2;stroke-miterlimit:10;}
</style>
<rect x="1" class="st0" width="1003.3" height="91.4"/>
<rect y="45.7" class="st0" width="1003.3" height="133.5"/>
<g>
	<rect x="452.9" y="126.2" class="st1" width="99.4" height="14.7"/>
	<path class="st2" d="M459.4,128.5c0.1-0.5,0.1-0.9,0.2-1.2c0.1-0.3,0.2-0.5,0.2-0.7c0.1-0.2,0.2-0.3,0.3-0.3c0.1,0,0.2-0.1,0.3-0.1
		h0.8c0.1,0,0.1,0,0.2,0.1c0,0,0.1,0.1,0.1,0.2v12.4c0,0.1,0,0.1-0.1,0.2c0,0-0.1,0.1-0.2,0.1h-0.6c-0.2,0-0.4-0.1-0.5-0.2
		s-0.2-0.3-0.2-0.5l0.3-8.3l-1,8.4c0,0.2-0.1,0.3-0.3,0.4c-0.2,0.1-0.3,0.2-0.5,0.2h0c-0.2,0-0.3-0.1-0.5-0.2
		c-0.2-0.1-0.2-0.2-0.3-0.4l-1-8.4l0.3,8.3c0,0.2,0,0.3-0.2,0.5s-0.3,0.2-0.5,0.2h-0.6c-0.1,0-0.1,0-0.2-0.1c0,0-0.1-0.1-0.1-0.2
		v-12.4c0-0.1,0-0.1,0.1-0.2c0,0,0.1-0.1,0.2-0.1h0.7c0.1,0,0.2,0,0.3,0.1c0.1,0,0.2,0.1,0.3,0.3c0.1,0.2,0.2,0.4,0.2,0.7
		c0.1,0.3,0.1,0.7,0.2,1.2l0.9,6.8L459.4,128.5z"/>
	<path class="st2" d="M471.1,137.4c0,0.6-0.2,1-0.6,1.4c-0.4,0.3-0.9,0.5-1.5,0.5c-0.3,0-0.6,0-0.9-0.1c-0.3-0.1-0.5-0.2-0.7-0.4
		c-0.2-0.2-0.3-0.4-0.4-0.6s-0.1-0.5-0.1-0.8v-10.9c0-0.1,0-0.1,0.1-0.2c0,0,0.1-0.1,0.2-0.1h0.6c0.2,0,0.3,0.1,0.5,0.2
		s0.2,0.2,0.2,0.4v10.6c0,0.2,0.1,0.4,0.2,0.5c0.1,0.1,0.3,0.2,0.5,0.2c0.2,0,0.4-0.1,0.5-0.2c0.1-0.1,0.2-0.3,0.2-0.5v-10.6
		c0-0.2,0.1-0.3,0.2-0.4s0.3-0.2,0.5-0.2h0.6c0.1,0,0.1,0,0.2,0.1c0,0,0.1,0.1,0.1,0.2V137.4z"/>
	<path class="st2" d="M476.8,139.1c-0.1,0-0.1,0-0.2-0.1c0,0-0.1-0.1-0.1-0.2v-12.4c0-0.1,0-0.1,0.1-0.2c0,0,0.1-0.1,0.2-0.1h0.6
		c0.2,0,0.3,0.1,0.5,0.2s0.2,0.2,0.2,0.4v11.1h1.3c0.2,0,0.3,0.1,0.4,0.2c0.1,0.1,0.2,0.3,0.2,0.5v0.4c0,0.1,0,0.1-0.1,0.2
		c0,0-0.1,0.1-0.2,0.1H476.8z"/>
	<path class="st2" d="M488.5,126.2c0.1,0,0.1,0,0.2,0.1c0,0,0.1,0.1,0.1,0.2v0.4c0,0.2-0.1,0.3-0.2,0.5c-0.1,0.1-0.2,0.2-0.4,0.2
		h-0.7v11.2c0,0.1,0,0.2-0.1,0.3s-0.2,0.1-0.3,0.1h-0.7c-0.1,0-0.2,0-0.3-0.1s-0.1-0.2-0.1-0.3v-11.2h-0.7c-0.2,0-0.3-0.1-0.4-0.2
		s-0.2-0.3-0.2-0.5v-0.4c0-0.1,0-0.1,0.1-0.2c0,0,0.1-0.1,0.2-0.1H488.5z"/>
	<path class="st2" d="M493.8,126.8c0-0.2,0.1-0.3,0.2-0.4s0.3-0.2,0.5-0.2h0.6c0.1,0,0.1,0,0.2,0.1c0,0,0.1,0.1,0.1,0.2v12.2
		c0,0.1,0,0.2-0.1,0.3s-0.2,0.1-0.3,0.1h-0.7c-0.1,0-0.2,0-0.3-0.1s-0.1-0.2-0.1-0.3V126.8z"/>
	<path class="st2" d="M500.7,132.8c-0.1,0-0.1,0-0.2-0.1c0,0-0.1-0.1-0.1-0.2v-0.4c0-0.2,0-0.3,0.2-0.5c0.1-0.1,0.2-0.2,0.4-0.2h3.4
		c0.1,0,0.1,0,0.2,0.1c0,0,0.1,0.1,0.1,0.2v0.4c0,0.2-0.1,0.3-0.2,0.5c-0.1,0.1-0.2,0.2-0.4,0.2H500.7z"/>
	<path class="st2" d="M513.5,128.5c0.1-0.5,0.1-0.9,0.2-1.2c0.1-0.3,0.2-0.5,0.2-0.7s0.2-0.3,0.3-0.3s0.2-0.1,0.3-0.1h0.8
		c0.1,0,0.1,0,0.2,0.1s0.1,0.1,0.1,0.2v12.4c0,0.1,0,0.1-0.1,0.2s-0.1,0.1-0.2,0.1h-0.6c-0.2,0-0.4-0.1-0.5-0.2s-0.2-0.3-0.2-0.5
		l0.3-8.3l-1,8.4c0,0.2-0.1,0.3-0.3,0.4s-0.3,0.2-0.5,0.2h0c-0.2,0-0.3-0.1-0.5-0.2s-0.2-0.2-0.3-0.4l-1-8.4l0.3,8.3
		c0,0.2,0,0.3-0.2,0.5s-0.3,0.2-0.5,0.2H510c-0.1,0-0.1,0-0.2-0.1c0,0-0.1-0.1-0.1-0.2v-12.4c0-0.1,0-0.1,0.1-0.2
		c0,0,0.1-0.1,0.2-0.1h0.7c0.1,0,0.2,0,0.3,0.1c0.1,0,0.2,0.1,0.3,0.3c0.1,0.2,0.2,0.4,0.2,0.7c0.1,0.3,0.1,0.7,0.2,1.2l0.9,6.8
		L513.5,128.5z"/>
	<path class="st2" d="M524.2,126.2c0.1,0,0.1,0,0.2,0.1s0.1,0.1,0.1,0.2v0.4c0,0.2-0.1,0.3-0.2,0.5c-0.1,0.1-0.2,0.2-0.4,0.2h-1.3
		v4.7h1.4c0.1,0,0.1,0,0.2,0.1c0,0,0.1,0.1,0.1,0.2v0.4c0,0.2-0.1,0.3-0.2,0.5c-0.1,0.1-0.2,0.2-0.4,0.2h-1.1v4.5h1.3
		c0.2,0,0.3,0.1,0.4,0.2c0.1,0.1,0.2,0.3,0.2,0.5v0.4c0,0.1,0,0.1-0.1,0.2c0,0-0.1,0.1-0.2,0.1h-2.9c-0.1,0-0.1,0-0.2-0.1
		c0,0-0.1-0.1-0.1-0.2v-12.4c0-0.1,0-0.1,0.1-0.2c0,0,0.1-0.1,0.2-0.1H524.2z"/>
	<path class="st2" d="M531.7,126.2c0.3,0,0.6,0,0.8,0.1c0.3,0.1,0.5,0.2,0.7,0.4c0.2,0.2,0.3,0.4,0.4,0.6c0.1,0.2,0.1,0.5,0.1,0.8
		v9.1c0,0.6-0.2,1-0.6,1.4c-0.4,0.3-0.9,0.5-1.5,0.5h-1.9c-0.1,0-0.1,0-0.2-0.1c0,0-0.1-0.1-0.1-0.2v-12.4c0-0.1,0-0.1,0.1-0.2
		c0,0,0.1-0.1,0.2-0.1H531.7z M531.7,137.9c0.2,0,0.4-0.1,0.5-0.2c0.1-0.1,0.2-0.3,0.2-0.5v-9.1c0-0.2,0-0.3-0.1-0.5
		c-0.1-0.1-0.3-0.2-0.5-0.2H531v10.4H531.7z"/>
	<path class="st2" d="M539.2,126.8c0-0.2,0.1-0.3,0.2-0.4s0.3-0.2,0.5-0.2h0.6c0.1,0,0.1,0,0.2,0.1c0,0,0.1,0.1,0.1,0.2v12.2
		c0,0.1,0,0.2-0.1,0.3s-0.2,0.1-0.3,0.1h-0.7c-0.1,0-0.2,0-0.3-0.1s-0.1-0.2-0.1-0.3V126.8z"/>
	<path class="st2" d="M548.5,126.2c0.1,0,0.1,0,0.2,0.1c0,0,0.1,0.1,0.1,0.2l1.2,12.4c0,0.1,0,0.1-0.1,0.2c0,0.1-0.1,0.1-0.2,0.1
		h-0.5c-0.2,0-0.3-0.1-0.5-0.2s-0.2-0.2-0.2-0.4l-0.1-1.8h-0.9l-0.1,1.8c0,0.2-0.1,0.3-0.2,0.4s-0.3,0.2-0.5,0.2h-0.5
		c-0.1,0-0.2,0-0.2-0.1c0-0.1-0.1-0.1-0.1-0.2l1.2-12.4c0-0.1,0-0.1,0.1-0.2s0.1-0.1,0.2-0.1H548.5z M547.5,135.6h0.8l-0.4-6.2
		L547.5,135.6z"/>
</g>
<g>
	<rect x="423.1" y="49.7" class="st1" width="159.1" height="23"/>
	<path class="st2" d="M426.8,66.2c-0.1,0-0.2,0-0.2-0.1c0-0.1-0.1-0.1-0.1-0.2V50c0-0.1,0-0.2,0.1-0.2c0-0.1,0.1-0.1,0.2-0.1h0.8
		c0.2,0,0.4,0.1,0.6,0.2c0.1,0.1,0.2,0.3,0.2,0.5v14.2h1.7c0.2,0,0.4,0.1,0.5,0.2s0.2,0.3,0.2,0.6v0.5c0,0.1,0,0.2-0.1,0.2
		c-0.1,0-0.1,0.1-0.2,0.1H426.8z"/>
	<path class="st2" d="M437.5,50.4c0-0.2,0.1-0.4,0.2-0.5c0.1-0.1,0.3-0.2,0.6-0.2h0.8c0.1,0,0.2,0,0.2,0.1c0,0.1,0.1,0.1,0.1,0.2
		v15.7c0,0.1,0,0.3-0.1,0.4c-0.1,0.1-0.2,0.1-0.4,0.1H438c-0.1,0-0.3,0-0.4-0.1c-0.1-0.1-0.1-0.2-0.1-0.4V50.4z"/>
	<path class="st2" d="M451.4,49.7c0.1,0,0.2,0,0.2,0.1c0,0.1,0.1,0.1,0.1,0.2v15.9c0,0.1,0,0.2-0.1,0.2c0,0.1-0.1,0.1-0.2,0.1h-0.8
		c-0.2,0-0.4-0.1-0.6-0.2c-0.1-0.1-0.2-0.3-0.2-0.5c0-0.1,0-0.3-0.1-0.7c-0.1-0.3-0.2-0.7-0.3-1.2c-0.1-0.5-0.2-1-0.4-1.6
		c-0.1-0.6-0.3-1.1-0.4-1.7c-0.1-0.6-0.3-1.2-0.4-1.7c-0.1-0.6-0.2-1.1-0.3-1.6l0.1,8.3c0,0.2-0.1,0.4-0.2,0.6
		c-0.1,0.2-0.3,0.2-0.6,0.2h-0.8c-0.1,0-0.2,0-0.2-0.1c0-0.1-0.1-0.1-0.1-0.2V50c0-0.1,0-0.2,0.1-0.2c0-0.1,0.1-0.1,0.2-0.1h0.8
		c0.2,0,0.4,0.1,0.6,0.2c0.1,0.1,0.2,0.3,0.2,0.5c0,0.1,0.1,0.4,0.1,0.8c0.1,0.4,0.1,0.8,0.3,1.4s0.2,1.1,0.3,1.7
		c0.1,0.6,0.2,1.2,0.4,1.8c0.1,0.6,0.2,1.2,0.4,1.7c0.1,0.5,0.2,1,0.3,1.4l-0.1-8.8c0-0.2,0.1-0.4,0.2-0.5c0.1-0.1,0.3-0.2,0.6-0.2
		H451.4z"/>
	<path class="st2" d="M461.4,49.7c0.4,0,0.8,0.1,1.1,0.2s0.6,0.3,0.8,0.5c0.2,0.2,0.4,0.5,0.5,0.8c0.1,0.3,0.2,0.6,0.2,1v11.7
		c0,0.7-0.2,1.3-0.7,1.8c-0.5,0.4-1.1,0.6-2,0.6H459c-0.1,0-0.2,0-0.2-0.1c0-0.1-0.1-0.1-0.1-0.2V50c0-0.1,0-0.2,0.1-0.2
		c0-0.1,0.1-0.1,0.2-0.1H461.4z M461.4,64.7c0.3,0,0.5-0.1,0.6-0.2c0.1-0.2,0.2-0.4,0.2-0.6V52.1c0-0.2-0.1-0.4-0.2-0.6
		c-0.1-0.2-0.3-0.2-0.6-0.2h-0.8v13.4H461.4z"/>
	<path class="st2" d="M475.3,55.5c-0.3,0-0.5-0.1-0.6-0.2c-0.1-0.2-0.2-0.4-0.2-0.6v-2.8c0-0.3-0.1-0.5-0.2-0.6
		c-0.1-0.2-0.3-0.2-0.6-0.2c-0.3,0-0.5,0.1-0.6,0.2c-0.1,0.2-0.2,0.4-0.2,0.6c0,0.8,0,1.4,0.1,2c0.1,0.6,0.2,1,0.4,1.5
		c0.2,0.4,0.4,0.8,0.6,1.1c0.2,0.3,0.4,0.7,0.6,1s0.4,0.7,0.6,1.1c0.2,0.4,0.4,0.8,0.6,1.3c0.2,0.5,0.3,1.1,0.4,1.8
		c0.1,0.7,0.1,1.5,0.1,2.4c0,0.4-0.1,0.7-0.2,1s-0.3,0.5-0.5,0.8c-0.2,0.2-0.5,0.4-0.9,0.5c-0.3,0.1-0.7,0.2-1.1,0.2
		c-0.8,0-1.5-0.2-2-0.6c-0.5-0.4-0.7-1-0.7-1.8v-3.4c0-0.1,0-0.2,0.1-0.2c0-0.1,0.1-0.1,0.2-0.1h0.8c0.3,0,0.5,0.1,0.6,0.2
		c0.1,0.2,0.2,0.4,0.2,0.6V64c0,0.3,0.1,0.5,0.2,0.6s0.3,0.2,0.6,0.2c0.3,0,0.5-0.1,0.6-0.2c0.1-0.2,0.2-0.4,0.2-0.6
		c0-0.9,0-1.7-0.1-2.3s-0.2-1.2-0.4-1.6c-0.2-0.5-0.4-0.9-0.6-1.2c-0.2-0.3-0.4-0.7-0.6-1c-0.2-0.3-0.4-0.6-0.6-1s-0.4-0.7-0.6-1.2
		c-0.2-0.5-0.3-1-0.4-1.6c-0.1-0.6-0.1-1.4-0.1-2.3c0-0.4,0.1-0.7,0.2-1c0.1-0.3,0.3-0.5,0.5-0.8c0.2-0.2,0.5-0.4,0.8-0.5
		s0.7-0.2,1.1-0.2c0.8,0,1.5,0.2,2,0.6c0.5,0.4,0.7,1,0.7,1.8v3.3c0,0.1,0,0.2-0.1,0.2c0,0.1-0.1,0.1-0.2,0.1H475.3z"/>
	<path class="st2" d="M487.4,49.7c0.1,0,0.2,0,0.2,0.1c0.1,0,0.1,0.1,0.1,0.2v0.5c0,0.2-0.1,0.4-0.2,0.6c-0.1,0.1-0.3,0.2-0.5,0.2
		h-1.7v6h1.9c0.1,0,0.2,0,0.2,0.1c0.1,0,0.1,0.1,0.1,0.2V58c0,0.2-0.1,0.4-0.2,0.6c-0.1,0.1-0.3,0.2-0.5,0.2h-1.4v5.8h1.7
		c0.2,0,0.4,0.1,0.5,0.2s0.2,0.3,0.2,0.6v0.5c0,0.1,0,0.2-0.1,0.2c-0.1,0-0.1,0.1-0.2,0.1h-3.7c-0.1,0-0.2,0-0.2-0.1
		c0-0.1-0.1-0.1-0.1-0.2V50c0-0.1,0-0.2,0.1-0.2c0-0.1,0.1-0.1,0.2-0.1H487.4z"/>
	<path class="st2" d="M496.7,65.7c0,0.1-0.1,0.3-0.1,0.4c-0.1,0.1-0.2,0.1-0.4,0.1h-0.9c-0.1,0-0.3,0-0.4-0.1
		c-0.1-0.1-0.1-0.2-0.1-0.4v-6.1l-1.4-9.6c0-0.1,0-0.2,0.1-0.2c0.1-0.1,0.1-0.1,0.2-0.1h0.8c0.3,0,0.5,0.1,0.6,0.2
		c0.1,0.2,0.2,0.4,0.2,0.6l0.5,5.9l0.5-5.9c0-0.2,0.1-0.4,0.2-0.6c0.1-0.2,0.3-0.2,0.6-0.2h0.8c0.1,0,0.2,0,0.2,0.1
		c0.1,0.1,0.1,0.1,0.1,0.2l-1.4,9.6V65.7z"/>
	<path class="st2" d="M517.8,49.7c0.4,0,0.8,0.1,1.1,0.2c0.3,0.1,0.6,0.3,0.9,0.5c0.2,0.2,0.4,0.5,0.5,0.8s0.2,0.6,0.2,1v4
		c0,0.4-0.1,0.7-0.2,1s-0.4,0.5-0.7,0.6c0.3,0.2,0.5,0.4,0.7,0.6s0.2,0.6,0.2,1v4.4c0,0.7-0.2,1.3-0.7,1.8c-0.5,0.4-1.1,0.6-2,0.6
		h-2.4c-0.1,0-0.2,0-0.2-0.1c0-0.1-0.1-0.1-0.1-0.2V50c0-0.1,0-0.2,0.1-0.2c0-0.1,0.1-0.1,0.2-0.1H517.8z M517.8,57
		c0.3,0,0.5-0.1,0.6-0.2c0.1-0.2,0.2-0.4,0.2-0.6v-4c0-0.3-0.1-0.5-0.2-0.6c-0.1-0.2-0.3-0.2-0.6-0.2h-0.8V57H517.8z M516.9,58.6
		v6.1h0.8c0.3,0,0.5-0.1,0.6-0.2c0.1-0.2,0.2-0.4,0.2-0.6v-4.4c0-0.2-0.1-0.4-0.2-0.6c-0.1-0.2-0.3-0.2-0.6-0.2H516.9z"/>
	<path class="st2" d="M530.5,49.7c0.1,0,0.1,0,0.2,0.1c0,0.1,0.1,0.1,0.1,0.2l1.5,15.9c0,0.1,0,0.2-0.1,0.2s-0.2,0.1-0.3,0.1h-0.7
		c-0.2,0-0.4-0.1-0.6-0.2c-0.2-0.1-0.2-0.3-0.3-0.5l-0.1-2.3h-1.2l-0.1,2.3c0,0.2-0.1,0.4-0.3,0.5c-0.2,0.1-0.3,0.2-0.6,0.2h-0.7
		c-0.1,0-0.2,0-0.3-0.1s-0.1-0.2-0.1-0.2l1.5-15.9c0-0.1,0-0.1,0.1-0.2c0-0.1,0.1-0.1,0.2-0.1H530.5z M529.2,61.7h1l-0.5-8
		L529.2,61.7z"/>
	<path class="st2" d="M539.2,66.2c-0.1,0-0.2,0-0.2-0.1c0-0.1-0.1-0.1-0.1-0.2V50c0-0.1,0-0.2,0.1-0.2c0-0.1,0.1-0.1,0.2-0.1h0.8
		c0.2,0,0.4,0.1,0.6,0.2c0.1,0.1,0.2,0.3,0.2,0.5v14.2h1.7c0.2,0,0.4,0.1,0.5,0.2s0.2,0.3,0.2,0.6v0.5c0,0.1,0,0.2-0.1,0.2
		c-0.1,0-0.1,0.1-0.2,0.1H539.2z"/>
	<path class="st2" d="M550.1,66.2c-0.1,0-0.2,0-0.2-0.1c0-0.1-0.1-0.1-0.1-0.2V50c0-0.1,0-0.2,0.1-0.2c0-0.1,0.1-0.1,0.2-0.1h0.8
		c0.2,0,0.4,0.1,0.6,0.2c0.1,0.1,0.2,0.3,0.2,0.5v14.2h1.7c0.2,0,0.4,0.1,0.5,0.2s0.2,0.3,0.2,0.6v0.5c0,0.1,0,0.2-0.1,0.2
		c-0.1,0-0.1,0.1-0.2,0.1H550.1z"/>
	<path class="st2" d="M560.7,51.9c0-0.7,0.2-1.3,0.7-1.8c0.5-0.4,1.1-0.6,2-0.6c0.4,0,0.8,0.1,1.1,0.2c0.3,0.1,0.6,0.3,0.9,0.5
		c0.2,0.2,0.4,0.5,0.5,0.8s0.2,0.6,0.2,1V64c0,0.7-0.2,1.3-0.7,1.8c-0.5,0.4-1.1,0.6-2,0.6c-0.4,0-0.8-0.1-1.1-0.2
		c-0.3-0.1-0.6-0.3-0.8-0.5c-0.2-0.2-0.4-0.5-0.5-0.8c-0.1-0.3-0.2-0.6-0.2-1V51.9z M564.2,51.9c0-0.3-0.1-0.5-0.2-0.6
		c-0.1-0.2-0.3-0.2-0.6-0.2c-0.3,0-0.5,0.1-0.6,0.2c-0.1,0.2-0.2,0.4-0.2,0.6V64c0,0.3,0.1,0.5,0.2,0.6c0.1,0.2,0.3,0.2,0.6,0.2
		c0.3,0,0.5-0.1,0.6-0.2c0.1-0.2,0.2-0.4,0.2-0.6V51.9z"/>
	<path class="st2" d="M578.4,64c0,0.7-0.2,1.3-0.7,1.8c-0.5,0.4-1.1,0.6-2,0.6c-0.4,0-0.8-0.1-1.1-0.2c-0.3-0.1-0.6-0.3-0.8-0.5
		c-0.2-0.2-0.4-0.5-0.5-0.8c-0.1-0.3-0.2-0.6-0.2-1V50c0-0.1,0-0.2,0.1-0.2c0-0.1,0.1-0.1,0.2-0.1h0.8c0.2,0,0.4,0.1,0.6,0.2
		c0.1,0.1,0.2,0.3,0.2,0.5V64c0,0.3,0.1,0.5,0.2,0.6c0.1,0.2,0.3,0.2,0.6,0.2c0.3,0,0.5-0.1,0.6-0.2c0.1-0.2,0.2-0.4,0.2-0.6V50.4
		c0-0.2,0.1-0.4,0.2-0.5c0.1-0.1,0.3-0.2,0.6-0.2h0.8c0.1,0,0.2,0,0.2,0.1c0,0.1,0.1,0.1,0.1,0.2V64z"/>
</g>
<g>
	<path class="st3" d="M444.7,45.7l-23.8-30.9c0,0,0,0-0.1-0.1c9,0,159.2,0,159.2,0"/>
	<path class="st3" d="M556.1,45.7l23.8-30.9c0,0,0,0,0.1-0.1c-9,0-159.2,0-159.2,0"/>
</g>
<polygon class="st2" points="502.3,123.9 496.9,116.8 502.3,117.5 506.4,118.5 "/>
<line class="st4" x1="466.5" y1="73.1" x2="502.2" y2="119.5"/>
<line class="st4" x1="538.2" y1="73.1" x2="502.5" y2="119.5"/>
<g>
	<line class="st5" x1="384.7" y1="40.7" x2="3" y2="40.7"/>
	<line class="st5" x1="1002.3" y1="40.7" x2="621.8" y2="40.7"/>
</g>
</svg>
