<?xml version="1.0" encoding="utf-8"?>
<!-- Generator: Adobe Illustrator 21.0.0, SVG Export Plug-In . SVG Version: 6.00 Build 0)  -->
<svg version="1.1" id="Layer_1" xmlns="http://www.w3.org/2000/svg" xmlns:xlink="http://www.w3.org/1999/xlink" x="0px" y="0px"
	 viewBox="0 0 297.9 179.2" style="enable-background:new 0 0 297.9 179.2;" xml:space="preserve">
<style type="text/css">
	.st0{fill:#FFFFFF;}
	.st1{fill:none;}
	.st2{fill:#00A6AD;stroke:#00A6AD;stroke-width:0.25;stroke-miterlimit:10;}
	.st3{fill:#00A6AD;stroke:#00A6AD;stroke-width:0.5;stroke-miterlimit:10;}
	.st4{fill:#FFFFFF;stroke:#00A6AD;stroke-width:3;stroke-miterlimit:10;}
	.st5{fill:#00A6AD;}
	.st6{fill:#00A6AD;stroke:#00A6AD;stroke-width:3;stroke-miterlimit:10;}
</style>
<rect class="st0" width="297.9" height="179.2"/>
<g>
	<rect x="99.9" y="144.5" class="st1" width="99.4" height="14.7"/>
	<path class="st2" d="M106.4,146.7c0.1-0.5,0.1-0.9,0.2-1.2c0.1-0.3,0.2-0.5,0.2-0.7c0.1-0.2,0.2-0.3,0.3-0.3c0.1,0,0.2-0.1,0.3-0.1
		h0.8c0.1,0,0.1,0,0.2,0.1c0,0,0.1,0.1,0.1,0.2v12.4c0,0.1,0,0.1-0.1,0.2c0,0-0.1,0.1-0.2,0.1h-0.6c-0.2,0-0.4-0.1-0.5-0.2
		s-0.2-0.3-0.2-0.5l0.3-8.3l-1,8.4c0,0.2-0.1,0.3-0.3,0.4c-0.2,0.1-0.3,0.2-0.5,0.2h0c-0.2,0-0.3-0.1-0.5-0.2
		c-0.2-0.1-0.2-0.2-0.3-0.4l-1-8.4l0.3,8.3c0,0.2,0,0.3-0.2,0.5s-0.3,0.2-0.5,0.2h-0.6c-0.1,0-0.1,0-0.2-0.1c0,0-0.1-0.1-0.1-0.2
		v-12.4c0-0.1,0-0.1,0.1-0.2c0,0,0.1-0.1,0.2-0.1h0.7c0.1,0,0.2,0,0.3,0.1c0.1,0,0.2,0.1,0.3,0.3c0.1,0.2,0.2,0.4,0.2,0.7
		c0.1,0.3,0.1,0.7,0.2,1.2l0.9,6.8L106.4,146.7z"/>
	<path class="st2" d="M118.1,155.7c0,0.6-0.2,1-0.6,1.4c-0.4,0.3-0.9,0.5-1.5,0.5c-0.3,0-0.6,0-0.9-0.1c-0.3-0.1-0.5-0.2-0.7-0.4
		c-0.2-0.2-0.3-0.4-0.4-0.6s-0.1-0.5-0.1-0.8v-10.9c0-0.1,0-0.1,0.1-0.2c0,0,0.1-0.1,0.2-0.1h0.6c0.2,0,0.3,0.1,0.5,0.2
		s0.2,0.2,0.2,0.4v10.6c0,0.2,0.1,0.4,0.2,0.5c0.1,0.1,0.3,0.2,0.5,0.2c0.2,0,0.4-0.1,0.5-0.2c0.1-0.1,0.2-0.3,0.2-0.5v-10.6
		c0-0.2,0.1-0.3,0.2-0.4s0.3-0.2,0.5-0.2h0.6c0.1,0,0.1,0,0.2,0.1c0,0,0.1,0.1,0.1,0.2V155.7z"/>
	<path class="st2" d="M123.8,157.4c-0.1,0-0.1,0-0.2-0.1c0,0-0.1-0.1-0.1-0.2v-12.4c0-0.1,0-0.1,0.1-0.2c0,0,0.1-0.1,0.2-0.1h0.6
		c0.2,0,0.3,0.1,0.5,0.2s0.2,0.2,0.2,0.4v11.1h1.3c0.2,0,0.3,0.1,0.4,0.2c0.1,0.1,0.2,0.3,0.2,0.5v0.4c0,0.1,0,0.1-0.1,0.2
		c0,0-0.1,0.1-0.2,0.1H123.8z"/>
	<path class="st2" d="M135.4,144.5c0.1,0,0.1,0,0.2,0.1c0,0,0.1,0.1,0.1,0.2v0.4c0,0.2-0.1,0.3-0.2,0.5c-0.1,0.1-0.2,0.2-0.4,0.2
		h-0.7V157c0,0.1,0,0.2-0.1,0.3s-0.2,0.1-0.3,0.1h-0.7c-0.1,0-0.2,0-0.3-0.1s-0.1-0.2-0.1-0.3v-11.2h-0.7c-0.2,0-0.3-0.1-0.4-0.2
		s-0.2-0.3-0.2-0.5v-0.4c0-0.1,0-0.1,0.1-0.2c0,0,0.1-0.1,0.2-0.1H135.4z"/>
	<path class="st2" d="M140.8,145.1c0-0.2,0.1-0.3,0.2-0.4s0.3-0.2,0.5-0.2h0.6c0.1,0,0.1,0,0.2,0.1c0,0,0.1,0.1,0.1,0.2V157
		c0,0.1,0,0.2-0.1,0.3s-0.2,0.1-0.3,0.1h-0.7c-0.1,0-0.2,0-0.3-0.1s-0.1-0.2-0.1-0.3V145.1z"/>
	<path class="st2" d="M147.7,151.1c-0.1,0-0.1,0-0.2-0.1c0,0-0.1-0.1-0.1-0.2v-0.4c0-0.2,0-0.3,0.2-0.5c0.1-0.1,0.2-0.2,0.4-0.2h3.4
		c0.1,0,0.1,0,0.2,0.1c0,0,0.1,0.1,0.1,0.2v0.4c0,0.2-0.1,0.3-0.2,0.5c-0.1,0.1-0.2,0.2-0.4,0.2H147.7z"/>
	<path class="st2" d="M160.5,146.7c0.1-0.5,0.1-0.9,0.2-1.2c0.1-0.3,0.2-0.5,0.2-0.7s0.2-0.3,0.3-0.3s0.2-0.1,0.3-0.1h0.8
		c0.1,0,0.1,0,0.2,0.1s0.1,0.1,0.1,0.2v12.4c0,0.1,0,0.1-0.1,0.2s-0.1,0.1-0.2,0.1h-0.6c-0.2,0-0.4-0.1-0.5-0.2s-0.2-0.3-0.2-0.5
		l0.3-8.3l-1,8.4c0,0.2-0.1,0.3-0.3,0.4s-0.3,0.2-0.5,0.2h0c-0.2,0-0.3-0.1-0.5-0.2s-0.2-0.2-0.3-0.4l-1-8.4l0.3,8.3
		c0,0.2,0,0.3-0.2,0.5s-0.3,0.2-0.5,0.2H157c-0.1,0-0.1,0-0.2-0.1c0,0-0.1-0.1-0.1-0.2v-12.4c0-0.1,0-0.1,0.1-0.2
		c0,0,0.1-0.1,0.2-0.1h0.7c0.1,0,0.2,0,0.3,0.1c0.1,0,0.2,0.1,0.3,0.3c0.1,0.2,0.2,0.4,0.2,0.7c0.1,0.3,0.1,0.7,0.2,1.2l0.9,6.8
		L160.5,146.7z"/>
	<path class="st2" d="M171.2,144.5c0.1,0,0.1,0,0.2,0.1s0.1,0.1,0.1,0.2v0.4c0,0.2-0.1,0.3-0.2,0.5c-0.1,0.1-0.2,0.2-0.4,0.2h-1.3
		v4.7h1.4c0.1,0,0.1,0,0.2,0.1c0,0,0.1,0.1,0.1,0.2v0.4c0,0.2-0.1,0.3-0.2,0.5c-0.1,0.1-0.2,0.2-0.4,0.2h-1.1v4.5h1.3
		c0.2,0,0.3,0.1,0.4,0.2c0.1,0.1,0.2,0.3,0.2,0.5v0.4c0,0.1,0,0.1-0.1,0.2c0,0-0.1,0.1-0.2,0.1h-2.9c-0.1,0-0.1,0-0.2-0.1
		c0,0-0.1-0.1-0.1-0.2v-12.4c0-0.1,0-0.1,0.1-0.2c0,0,0.1-0.1,0.2-0.1H171.2z"/>
	<path class="st2" d="M178.7,144.5c0.3,0,0.6,0,0.8,0.1c0.3,0.1,0.5,0.2,0.7,0.4c0.2,0.2,0.3,0.4,0.4,0.6c0.1,0.2,0.1,0.5,0.1,0.8
		v9.1c0,0.6-0.2,1-0.6,1.4c-0.4,0.3-0.9,0.5-1.5,0.5h-1.9c-0.1,0-0.1,0-0.2-0.1c0,0-0.1-0.1-0.1-0.2v-12.4c0-0.1,0-0.1,0.1-0.2
		c0,0,0.1-0.1,0.2-0.1H178.7z M178.6,156.2c0.2,0,0.4-0.1,0.5-0.2c0.1-0.1,0.2-0.3,0.2-0.5v-9.1c0-0.2,0-0.3-0.1-0.5
		c-0.1-0.1-0.3-0.2-0.5-0.2H178v10.4H178.6z"/>
	<path class="st2" d="M186.2,145.1c0-0.2,0.1-0.3,0.2-0.4s0.3-0.2,0.5-0.2h0.6c0.1,0,0.1,0,0.2,0.1c0,0,0.1,0.1,0.1,0.2V157
		c0,0.1,0,0.2-0.1,0.3s-0.2,0.1-0.3,0.1h-0.7c-0.1,0-0.2,0-0.3-0.1s-0.1-0.2-0.1-0.3V145.1z"/>
	<path class="st2" d="M195.5,144.5c0.1,0,0.1,0,0.2,0.1c0,0,0.1,0.1,0.1,0.2l1.2,12.4c0,0.1,0,0.1-0.1,0.2c0,0.1-0.1,0.1-0.2,0.1
		h-0.5c-0.2,0-0.3-0.1-0.5-0.2s-0.2-0.2-0.2-0.4l-0.1-1.8h-0.9l-0.1,1.8c0,0.2-0.1,0.3-0.2,0.4s-0.3,0.2-0.5,0.2h-0.5
		c-0.1,0-0.2,0-0.2-0.1c0-0.1-0.1-0.1-0.1-0.2l1.2-12.4c0-0.1,0-0.1,0.1-0.2s0.1-0.1,0.2-0.1H195.5z M194.5,153.9h0.8l-0.4-6.2
		L194.5,153.9z"/>
</g>
<g>
	<rect x="4.4" y="43.8" class="st1" width="289.1" height="33.6"/>
	<path class="st3" d="M11.2,73.3c-0.2,0-0.3,0-0.4-0.1c-0.1-0.1-0.1-0.2-0.1-0.4V44.4c0-0.1,0-0.3,0.1-0.4c0.1-0.1,0.2-0.1,0.4-0.1
		h1.4c0.4,0,0.8,0.1,1.1,0.4c0.3,0.2,0.4,0.5,0.4,0.9v25.4h3.1c0.4,0,0.7,0.1,0.9,0.4c0.2,0.3,0.4,0.6,0.4,1v0.9
		c0,0.2-0.1,0.3-0.2,0.4c-0.1,0.1-0.2,0.1-0.4,0.1H11.2z"/>
	<path class="st3" d="M30.2,45.1c0-0.4,0.1-0.7,0.4-0.9s0.6-0.4,1.1-0.4H33c0.2,0,0.3,0,0.4,0.1c0.1,0.1,0.1,0.2,0.1,0.4v28.1
		c0,0.3-0.1,0.5-0.3,0.6c-0.2,0.2-0.4,0.3-0.6,0.3h-1.6c-0.3,0-0.5-0.1-0.6-0.3c-0.2-0.2-0.3-0.4-0.3-0.6V45.1z"/>
	<path class="st3" d="M55.1,43.8c0.2,0,0.3,0,0.4,0.1c0.1,0.1,0.1,0.2,0.1,0.4v28.5c0,0.1,0,0.3-0.1,0.4c-0.1,0.1-0.2,0.1-0.4,0.1
		h-1.4c-0.4,0-0.8-0.1-1-0.3c-0.2-0.2-0.4-0.5-0.4-0.8c0-0.2-0.1-0.6-0.2-1.2s-0.3-1.3-0.5-2.2C51.4,68,51.2,67.1,51,66
		c-0.2-1-0.5-2-0.7-3.1s-0.5-2.1-0.7-3.1c-0.2-1-0.4-1.9-0.5-2.8l0.3,14.8c0,0.4-0.1,0.8-0.4,1.1s-0.6,0.4-1.1,0.4h-1.4
		c-0.2,0-0.3,0-0.4-0.1C46.1,73.1,46,73,46,72.8V44.4c0-0.1,0-0.3,0.1-0.4c0.1-0.1,0.2-0.1,0.4-0.1h1.4c0.4,0,0.8,0.1,1,0.3
		c0.3,0.2,0.4,0.5,0.4,0.9c0,0.3,0.1,0.7,0.2,1.4c0.1,0.7,0.3,1.5,0.4,2.4c0.2,0.9,0.4,1.9,0.6,3c0.2,1.1,0.4,2.2,0.7,3.3
		c0.2,1.1,0.4,2.1,0.6,3.1c0.2,1,0.4,1.8,0.6,2.6l-0.3-15.8c0-0.4,0.1-0.7,0.4-0.9s0.6-0.4,1.1-0.4H55.1z"/>
	<path class="st3" d="M73,43.8c0.7,0,1.4,0.1,1.9,0.3c0.6,0.2,1.1,0.5,1.5,0.9s0.7,0.8,1,1.4c0.2,0.5,0.3,1.1,0.3,1.8V69
		c0,1.3-0.4,2.4-1.3,3.1c-0.8,0.8-2,1.1-3.5,1.1h-4.3c-0.2,0-0.3,0-0.4-0.1c-0.1-0.1-0.1-0.2-0.1-0.4V44.4c0-0.1,0-0.3,0.1-0.4
		c0.1-0.1,0.2-0.1,0.4-0.1H73z M72.9,70.5c0.5,0,0.9-0.1,1.1-0.4c0.2-0.3,0.3-0.6,0.3-1.1V48.1c0-0.4-0.1-0.8-0.3-1.1
		c-0.2-0.3-0.6-0.4-1.1-0.4h-1.4v23.9H72.9z"/>
	<path class="st3" d="M97.9,54.2c-0.5,0-0.8-0.1-1.1-0.4s-0.4-0.6-0.4-1.1v-5c0-0.4-0.1-0.8-0.4-1.1c-0.2-0.3-0.6-0.4-1.1-0.4
		c-0.5,0-0.9,0.1-1.1,0.4s-0.4,0.6-0.4,1.1c0,1.4,0.1,2.5,0.3,3.5c0.2,1,0.4,1.9,0.7,2.6s0.6,1.4,1,2s0.8,1.2,1.1,1.8
		c0.4,0.6,0.8,1.2,1.1,1.9c0.4,0.7,0.7,1.5,1,2.4c0.3,0.9,0.5,2,0.7,3.2c0.2,1.2,0.3,2.6,0.3,4.3c0,0.7-0.1,1.3-0.3,1.8
		c-0.2,0.5-0.5,1-1,1.3c-0.4,0.4-0.9,0.7-1.5,0.9c-0.6,0.2-1.2,0.3-2,0.3c-1.5,0-2.7-0.4-3.5-1.1c-0.8-0.8-1.3-1.8-1.3-3.1v-6.1
		c0-0.2,0-0.3,0.1-0.4c0.1-0.1,0.2-0.2,0.4-0.2h1.4c0.5,0,0.8,0.1,1.1,0.4s0.4,0.6,0.4,1.1v5.2c0,0.4,0.1,0.8,0.4,1.1
		c0.2,0.3,0.6,0.4,1.1,0.4c0.5,0,0.9-0.1,1.1-0.4c0.2-0.3,0.3-0.6,0.3-1.1c0-1.6-0.1-3-0.3-4.1c-0.2-1.1-0.4-2.1-0.7-2.9
		c-0.3-0.8-0.6-1.5-1-2.1s-0.8-1.2-1.1-1.8c-0.4-0.6-0.8-1.1-1.1-1.7c-0.4-0.6-0.7-1.3-1-2.1c-0.3-0.8-0.5-1.8-0.7-2.9
		c-0.2-1.1-0.3-2.4-0.3-4c0-0.7,0.1-1.3,0.3-1.8c0.2-0.5,0.5-1,1-1.3s0.9-0.7,1.5-0.9c0.6-0.2,1.2-0.3,2-0.3c1.5,0,2.7,0.4,3.5,1.1
		c0.8,0.8,1.3,1.8,1.3,3.1v5.9c0,0.2,0,0.3-0.1,0.4c-0.1,0.1-0.2,0.2-0.4,0.2H97.9z"/>
	<path class="st3" d="M119.5,43.8c0.2,0,0.3,0,0.4,0.1c0.1,0.1,0.2,0.2,0.2,0.4v0.9c0,0.4-0.1,0.8-0.4,1c-0.2,0.3-0.5,0.4-0.9,0.4
		h-3.1v10.7h3.3c0.2,0,0.3,0,0.4,0.1c0.1,0.1,0.2,0.2,0.2,0.4v0.9c0,0.4-0.1,0.8-0.4,1c-0.2,0.3-0.5,0.4-0.9,0.4h-2.6v10.4h3.1
		c0.4,0,0.7,0.1,0.9,0.4s0.4,0.6,0.4,1v0.9c0,0.2,0,0.3-0.2,0.4c-0.1,0.1-0.2,0.1-0.4,0.1h-6.7c-0.2,0-0.3,0-0.4-0.1
		c-0.1-0.1-0.1-0.2-0.1-0.4V44.4c0-0.1,0-0.3,0.1-0.4c0.1-0.1,0.2-0.1,0.4-0.1H119.5z"/>
	<path class="st3" d="M136,72.4c0,0.3-0.1,0.5-0.3,0.6c-0.2,0.2-0.4,0.3-0.6,0.3h-1.5c-0.3,0-0.5-0.1-0.6-0.3
		c-0.2-0.2-0.3-0.4-0.3-0.6v-11l-2.5-17.1c0-0.1,0-0.3,0.1-0.4c0.1-0.1,0.2-0.1,0.4-0.1h1.4c0.5,0,0.8,0.1,1.1,0.4
		c0.2,0.3,0.4,0.6,0.4,1.1l0.9,10.6l0.9-10.6c0-0.4,0.2-0.8,0.4-1.1c0.2-0.3,0.6-0.4,1.1-0.4h1.4c0.2,0,0.3,0,0.4,0.1
		c0.1,0.1,0.1,0.2,0.1,0.4L136,61.5V72.4z"/>
	<path class="st3" d="M173.8,43.8c0.7,0,1.4,0.1,2,0.3c0.6,0.2,1.1,0.5,1.5,0.9c0.4,0.4,0.8,0.8,1,1.4c0.2,0.5,0.3,1.1,0.3,1.8v7.2
		c0,0.7-0.1,1.3-0.4,1.8c-0.3,0.5-0.7,0.8-1.2,1.1c0.5,0.3,0.9,0.7,1.2,1.1c0.3,0.5,0.4,1,0.4,1.8V69c0,1.3-0.4,2.4-1.3,3.1
		s-2,1.1-3.5,1.1h-4.3c-0.2,0-0.3,0-0.4-0.1c-0.1-0.1-0.1-0.2-0.1-0.4V44.4c0-0.1,0-0.3,0.1-0.4c0.1-0.1,0.2-0.1,0.4-0.1H173.8z
		 M173.8,56.9c0.5,0,0.9-0.1,1.1-0.4c0.2-0.3,0.3-0.6,0.3-1.1v-7.2c0-0.4-0.1-0.8-0.3-1.1c-0.2-0.3-0.6-0.4-1.1-0.4h-1.5v10.2H173.8
		z M172.3,59.7v10.9h1.5c0.5,0,0.9-0.1,1.1-0.4c0.2-0.3,0.3-0.6,0.3-1.1v-7.9c0-0.4-0.1-0.8-0.3-1.1c-0.2-0.3-0.6-0.4-1.1-0.4H172.3
		z"/>
	<path class="st3" d="M196.5,43.8c0.2,0,0.3,0,0.4,0.1c0.1,0.1,0.1,0.2,0.1,0.4l2.8,28.4c0,0.1,0,0.3-0.1,0.4
		c-0.1,0.1-0.3,0.2-0.5,0.2h-1.2c-0.4,0-0.8-0.1-1-0.4c-0.3-0.2-0.4-0.5-0.5-0.9l-0.3-4H194l-0.3,4c0,0.4-0.2,0.6-0.5,0.9
		c-0.3,0.2-0.6,0.4-1,0.4h-1.2c-0.2,0-0.4-0.1-0.5-0.2c-0.1-0.1-0.2-0.3-0.1-0.4l2.8-28.4c0-0.1,0.1-0.3,0.2-0.4
		c0.1-0.1,0.2-0.1,0.3-0.1H196.5z M194.2,65.3h1.7L195.1,51L194.2,65.3z"/>
	<path class="st3" d="M212.1,73.3c-0.2,0-0.3,0-0.4-0.1c-0.1-0.1-0.1-0.2-0.1-0.4V44.4c0-0.1,0-0.3,0.1-0.4c0.1-0.1,0.2-0.1,0.4-0.1
		h1.4c0.4,0,0.8,0.1,1,0.4s0.4,0.5,0.4,0.9v25.4h3.1c0.4,0,0.7,0.1,0.9,0.4s0.4,0.6,0.4,1v0.9c0,0.2,0,0.3-0.2,0.4
		c-0.1,0.1-0.2,0.1-0.4,0.1H212.1z"/>
	<path class="st3" d="M231.6,73.3c-0.2,0-0.3,0-0.4-0.1c-0.1-0.1-0.1-0.2-0.1-0.4V44.4c0-0.1,0-0.3,0.1-0.4c0.1-0.1,0.2-0.1,0.4-0.1
		h1.4c0.4,0,0.8,0.1,1,0.4s0.4,0.5,0.4,0.9v25.4h3.1c0.4,0,0.7,0.1,0.9,0.4s0.4,0.6,0.4,1v0.9c0,0.2,0,0.3-0.2,0.4
		c-0.1,0.1-0.2,0.1-0.4,0.1H231.6z"/>
	<path class="st3" d="M250.6,47.7c0-1.3,0.4-2.4,1.3-3.1c0.8-0.8,2-1.1,3.5-1.1c0.7,0,1.4,0.1,2,0.3c0.6,0.2,1.1,0.5,1.5,0.9
		c0.4,0.4,0.8,0.8,1,1.3c0.2,0.5,0.3,1.1,0.3,1.8v21.7c0,1.3-0.4,2.4-1.3,3.1c-0.8,0.8-2,1.1-3.5,1.1c-0.7,0-1.4-0.1-2-0.3
		c-0.6-0.2-1.1-0.5-1.5-0.9s-0.8-0.8-1-1.3c-0.2-0.5-0.3-1.1-0.3-1.8V47.7z M256.8,47.7c0-0.4-0.1-0.8-0.3-1.1
		c-0.2-0.3-0.6-0.4-1.1-0.4c-0.5,0-0.8,0.1-1.1,0.4c-0.2,0.3-0.4,0.6-0.4,1.1v21.7c0,0.4,0.1,0.8,0.4,1.1s0.6,0.4,1.1,0.4
		c0.5,0,0.8-0.1,1.1-0.4c0.2-0.3,0.4-0.6,0.4-1.1V47.7z"/>
	<path class="st3" d="M282.3,69.4c0,1.3-0.4,2.4-1.3,3.1c-0.8,0.8-2,1.1-3.5,1.1c-0.7,0-1.4-0.1-2-0.3c-0.6-0.2-1.1-0.5-1.5-0.9
		s-0.8-0.8-1-1.3c-0.2-0.5-0.3-1.1-0.3-1.8V44.4c0-0.1,0-0.3,0.1-0.4c0.1-0.1,0.2-0.1,0.4-0.1h1.4c0.4,0,0.8,0.1,1,0.4
		s0.4,0.5,0.4,0.9v24.3c0,0.4,0.1,0.8,0.4,1.1s0.6,0.4,1.1,0.4c0.5,0,0.8-0.1,1.1-0.4c0.2-0.3,0.4-0.6,0.4-1.1V45.1
		c0-0.4,0.1-0.7,0.4-0.9c0.3-0.2,0.6-0.4,1-0.4h1.4c0.2,0,0.3,0,0.4,0.1c0.1,0.1,0.1,0.2,0.1,0.4V69.4z"/>
</g>
<path class="st4" d="M88.9,40.3l-22-32.6c0,0,0,0-0.1-0.1c9,0,159.2,0,159.2,0"/>
<path class="st4" d="M205.6,39L226,7.7c0,0,0,0,0.1-0.1c-9,0-159.2,0-159.2,0"/>
<polygon class="st5" points="150.2,131.3 146.4,126 150,127.6 153.6,126.3 "/>
<line class="st6" x1="115.2" y1="80.2" x2="150.1" y2="128.5"/>
<line class="st6" x1="183.9" y1="80.2" x2="150.3" y2="128.5"/>
</svg>
