<?xml version="1.0" encoding="utf-8"?>
<!-- Generator: Adobe Illustrator 21.0.0, SVG Export Plug-In . SVG Version: 6.00 Build 0)  -->
<svg version="1.1" id="Layer_1" xmlns="http://www.w3.org/2000/svg" xmlns:xlink="http://www.w3.org/1999/xlink" x="0px" y="0px"
	 viewBox="0 0 1004.3 179.2" style="enable-background:new 0 0 1004.3 179.2;" xml:space="preserve">
<style type="text/css">
	.st0{fill:#00A6AD;}
	.st1{fill:none;}
	.st2{fill:#FFFFFF;}
	.st3{fill:#00A6AD;stroke:#FFFFFF;stroke-width:5;stroke-miterlimit:10;}
	.st4{fill:#00A6AD;stroke:#F3FFFF;stroke-width:5;stroke-miterlimit:10;}
	.st5{stroke:#FFFFFF;stroke-width:2;stroke-miterlimit:10;}
</style>
<rect class="st0" width="1004.3" height="91.4"/>
<rect y="45.7" class="st0" width="1013.7" height="133.5"/>
<g>
	<rect x="438.6" y="131.4" class="st1" width="127" height="53.6"/>
	<path class="st2" d="M446.7,134.2c0.1-0.6,0.1-1.1,0.2-1.5s0.2-0.6,0.3-0.8c0.1-0.2,0.2-0.3,0.4-0.4c0.1-0.1,0.3-0.1,0.4-0.1h1
		c0.1,0,0.2,0,0.2,0.1c0,0.1,0.1,0.1,0.1,0.2v15.4c0,0.1,0,0.1-0.1,0.2s-0.1,0.1-0.2,0.1h-0.8c-0.3,0-0.5-0.1-0.6-0.2
		s-0.2-0.3-0.2-0.6l0.4-10.3l-1.3,10.4c0,0.2-0.1,0.3-0.3,0.5c-0.2,0.1-0.4,0.2-0.6,0.2h0c-0.2,0-0.4-0.1-0.6-0.2
		c-0.2-0.1-0.3-0.3-0.3-0.5l-1.3-10.4l0.4,10.3c0,0.2-0.1,0.4-0.2,0.6s-0.3,0.2-0.6,0.2h-0.8c-0.1,0-0.2,0-0.2-0.1s-0.1-0.1-0.1-0.2
		v-15.4c0-0.1,0-0.1,0.1-0.2c0-0.1,0.1-0.1,0.2-0.1h0.9c0.1,0,0.3,0,0.4,0.1c0.1,0,0.2,0.2,0.4,0.4c0.1,0.2,0.2,0.5,0.3,0.8
		s0.2,0.9,0.2,1.5l1.2,8.5L446.7,134.2z"/>
	<path class="st2" d="M461.2,145.2c0,0.7-0.2,1.3-0.7,1.7s-1.1,0.6-1.9,0.6c-0.4,0-0.8-0.1-1.1-0.2c-0.3-0.1-0.6-0.3-0.8-0.5
		c-0.2-0.2-0.4-0.4-0.5-0.7c-0.1-0.3-0.2-0.6-0.2-1v-13.5c0-0.1,0-0.1,0.1-0.2c0-0.1,0.1-0.1,0.2-0.1h0.8c0.2,0,0.4,0.1,0.6,0.2
		c0.1,0.1,0.2,0.3,0.2,0.5v13.1c0,0.2,0.1,0.4,0.2,0.6s0.3,0.2,0.6,0.2c0.3,0,0.5-0.1,0.6-0.2c0.1-0.1,0.2-0.3,0.2-0.6v-13.1
		c0-0.2,0.1-0.4,0.2-0.5c0.1-0.1,0.3-0.2,0.6-0.2h0.8c0.1,0,0.2,0,0.2,0.1c0,0.1,0.1,0.1,0.1,0.2V145.2z"/>
	<path class="st2" d="M468.2,147.3c-0.1,0-0.2,0-0.2-0.1s-0.1-0.1-0.1-0.2v-15.4c0-0.1,0-0.1,0.1-0.2c0-0.1,0.1-0.1,0.2-0.1h0.8
		c0.2,0,0.4,0.1,0.6,0.2c0.1,0.1,0.2,0.3,0.2,0.5v13.7h1.7c0.2,0,0.4,0.1,0.5,0.2s0.2,0.3,0.2,0.6v0.5c0,0.1,0,0.2-0.1,0.2
		c-0.1,0-0.1,0.1-0.2,0.1H468.2z"/>
	<path class="st2" d="M482.7,131.4c0.1,0,0.1,0,0.2,0.1c0.1,0,0.1,0.1,0.1,0.2v0.5c0,0.2-0.1,0.4-0.2,0.6c-0.1,0.1-0.3,0.2-0.5,0.2
		h-0.8v13.9c0,0.1,0,0.3-0.1,0.3c-0.1,0.1-0.2,0.1-0.3,0.1h-0.8c-0.1,0-0.3,0-0.3-0.1c-0.1-0.1-0.1-0.2-0.1-0.3v-13.9h-0.8
		c-0.2,0-0.4-0.1-0.5-0.2c-0.1-0.1-0.2-0.3-0.2-0.6v-0.5c0-0.1,0-0.2,0.1-0.2c0.1,0,0.1-0.1,0.2-0.1H482.7z"/>
	<path class="st2" d="M489.3,132.1c0-0.2,0.1-0.4,0.2-0.5s0.3-0.2,0.6-0.2h0.8c0.1,0,0.2,0,0.2,0.1c0,0.1,0.1,0.1,0.1,0.2v15.2
		c0,0.1,0,0.3-0.1,0.3s-0.2,0.1-0.3,0.1h-0.8c-0.1,0-0.3,0-0.3-0.1s-0.1-0.2-0.1-0.3V132.1z"/>
	<path class="st2" d="M497.8,139.6c-0.1,0-0.1,0-0.2-0.1c-0.1,0-0.1-0.1-0.1-0.2v-0.5c0-0.2,0.1-0.4,0.2-0.6
		c0.1-0.1,0.3-0.2,0.5-0.2h4.2c0.1,0,0.1,0,0.2,0.1s0.1,0.1,0.1,0.2v0.5c0,0.2-0.1,0.4-0.2,0.6c-0.1,0.1-0.3,0.2-0.5,0.2H497.8z"/>
	<path class="st2" d="M513.7,134.2c0.1-0.6,0.1-1.1,0.2-1.5s0.2-0.6,0.3-0.8c0.1-0.2,0.2-0.3,0.4-0.4c0.1-0.1,0.3-0.1,0.4-0.1h1
		c0.1,0,0.2,0,0.2,0.1c0,0.1,0.1,0.1,0.1,0.2v15.4c0,0.1,0,0.1-0.1,0.2c0,0.1-0.1,0.1-0.2,0.1h-0.8c-0.3,0-0.5-0.1-0.6-0.2
		s-0.2-0.3-0.2-0.6l0.4-10.3l-1.3,10.4c0,0.2-0.1,0.3-0.3,0.5c-0.2,0.1-0.4,0.2-0.6,0.2h0c-0.2,0-0.4-0.1-0.6-0.2
		c-0.2-0.1-0.3-0.3-0.3-0.5l-1.3-10.4l0.4,10.3c0,0.2-0.1,0.4-0.2,0.6s-0.3,0.2-0.6,0.2h-0.8c-0.1,0-0.2,0-0.2-0.1s-0.1-0.1-0.1-0.2
		v-15.4c0-0.1,0-0.1,0.1-0.2c0-0.1,0.1-0.1,0.2-0.1h0.9c0.1,0,0.3,0,0.4,0.1c0.1,0,0.2,0.2,0.4,0.4c0.1,0.2,0.2,0.5,0.3,0.8
		s0.2,0.9,0.2,1.5l1.2,8.5L513.7,134.2z"/>
	<path class="st2" d="M526.9,131.4c0.1,0,0.1,0,0.2,0.1s0.1,0.1,0.1,0.2v0.5c0,0.2-0.1,0.4-0.2,0.6c-0.1,0.1-0.3,0.2-0.5,0.2h-1.7
		v5.8h1.8c0.1,0,0.1,0,0.2,0.1c0.1,0,0.1,0.1,0.1,0.2v0.5c0,0.2-0.1,0.4-0.2,0.6c-0.1,0.1-0.3,0.2-0.5,0.2h-1.4v5.6h1.7
		c0.2,0,0.4,0.1,0.5,0.2s0.2,0.3,0.2,0.6v0.5c0,0.1,0,0.2-0.1,0.2s-0.1,0.1-0.2,0.1h-3.6c-0.1,0-0.2,0-0.2-0.1s-0.1-0.1-0.1-0.2
		v-15.4c0-0.1,0-0.1,0.1-0.2c0-0.1,0.1-0.1,0.2-0.1H526.9z"/>
	<path class="st2" d="M536.2,131.4c0.4,0,0.7,0.1,1.1,0.2c0.3,0.1,0.6,0.3,0.8,0.5c0.2,0.2,0.4,0.4,0.5,0.7c0.1,0.3,0.2,0.6,0.2,1
		V145c0,0.7-0.2,1.3-0.7,1.7c-0.5,0.4-1.1,0.6-1.9,0.6h-2.3c-0.1,0-0.2,0-0.2-0.1s-0.1-0.1-0.1-0.2v-15.4c0-0.1,0-0.1,0.1-0.2
		c0-0.1,0.1-0.1,0.2-0.1H536.2z M536.2,145.8c0.3,0,0.5-0.1,0.6-0.2s0.2-0.3,0.2-0.6v-11.3c0-0.2-0.1-0.4-0.2-0.6
		c-0.1-0.2-0.3-0.2-0.6-0.2h-0.8v12.9H536.2z"/>
	<path class="st2" d="M545.5,132.1c0-0.2,0.1-0.4,0.2-0.5s0.3-0.2,0.6-0.2h0.8c0.1,0,0.2,0,0.2,0.1c0,0.1,0.1,0.1,0.1,0.2v15.2
		c0,0.1,0,0.3-0.1,0.3s-0.2,0.1-0.3,0.1H546c-0.1,0-0.3,0-0.3-0.1s-0.1-0.2-0.1-0.3V132.1z"/>
	<path class="st2" d="M557,131.4c0.1,0,0.1,0,0.2,0.1c0,0.1,0.1,0.1,0.1,0.2l1.5,15.3c0,0.1,0,0.2-0.1,0.2c-0.1,0.1-0.2,0.1-0.3,0.1
		h-0.7c-0.2,0-0.4-0.1-0.6-0.2c-0.1-0.1-0.2-0.3-0.2-0.5l-0.1-2.2h-1.1l-0.1,2.2c0,0.2-0.1,0.3-0.3,0.5c-0.1,0.1-0.3,0.2-0.6,0.2
		h-0.7c-0.1,0-0.2,0-0.3-0.1c-0.1-0.1-0.1-0.1-0.1-0.2l1.5-15.3c0-0.1,0-0.1,0.1-0.2c0-0.1,0.1-0.1,0.2-0.1H557z M555.8,143h0.9
		l-0.5-7.7L555.8,143z"/>
</g>
<g>
	<rect x="402.4" y="44.8" class="st1" width="199.6" height="71.9"/>
	<path class="st2" d="M407.5,67.3c-0.1,0-0.2,0-0.3-0.1c-0.1-0.1-0.1-0.2-0.1-0.3V45.2c0-0.1,0-0.2,0.1-0.3c0.1-0.1,0.2-0.1,0.3-0.1
		h1.1c0.3,0,0.6,0.1,0.8,0.3c0.2,0.2,0.3,0.4,0.3,0.7v19.3h2.3c0.3,0,0.5,0.1,0.7,0.3c0.2,0.2,0.3,0.5,0.3,0.8v0.6
		c0,0.1,0,0.2-0.1,0.3c-0.1,0.1-0.2,0.1-0.3,0.1H407.5z"/>
	<path class="st2" d="M420.5,45.8c0-0.3,0.1-0.5,0.3-0.7c0.2-0.2,0.5-0.3,0.8-0.3h1.1c0.1,0,0.2,0,0.3,0.1c0.1,0.1,0.1,0.2,0.1,0.3
		v21.3c0,0.2-0.1,0.4-0.2,0.5c-0.1,0.1-0.3,0.2-0.5,0.2h-1.2c-0.2,0-0.4-0.1-0.5-0.2c-0.1-0.1-0.2-0.3-0.2-0.5V45.8z"/>
	<path class="st2" d="M438,44.8c0.1,0,0.2,0,0.3,0.1c0.1,0.1,0.1,0.2,0.1,0.3v21.6c0,0.1,0,0.2-0.1,0.3c-0.1,0.1-0.2,0.1-0.3,0.1
		h-1.1c-0.3,0-0.6-0.1-0.8-0.2s-0.3-0.4-0.3-0.6c0-0.2,0-0.5-0.1-0.9c-0.1-0.5-0.2-1-0.4-1.6c-0.1-0.6-0.3-1.3-0.5-2.1
		c-0.2-0.8-0.4-1.5-0.5-2.3c-0.2-0.8-0.3-1.6-0.5-2.4c-0.2-0.8-0.3-1.5-0.4-2.1l0.2,11.2c0,0.3-0.1,0.6-0.3,0.8
		c-0.2,0.2-0.5,0.3-0.8,0.3h-1.1c-0.1,0-0.2,0-0.3-0.1c-0.1-0.1-0.1-0.2-0.1-0.3V45.2c0-0.1,0-0.2,0.1-0.3c0.1-0.1,0.2-0.1,0.3-0.1
		h1.1c0.3,0,0.6,0.1,0.8,0.3s0.3,0.4,0.3,0.7c0,0.2,0.1,0.6,0.2,1.1c0.1,0.5,0.2,1.1,0.3,1.9c0.1,0.7,0.3,1.5,0.5,2.3
		c0.2,0.8,0.3,1.7,0.5,2.5s0.3,1.6,0.5,2.4c0.2,0.7,0.3,1.4,0.4,1.9l-0.2-12c0-0.3,0.1-0.5,0.3-0.7c0.2-0.2,0.5-0.3,0.8-0.3H438z"/>
	<path class="st2" d="M450.1,44.8c0.5,0,1,0.1,1.5,0.2c0.4,0.2,0.8,0.4,1.1,0.7c0.3,0.3,0.6,0.6,0.7,1s0.3,0.9,0.3,1.3V64
		c0,1-0.3,1.8-1,2.4c-0.6,0.6-1.5,0.9-2.7,0.9h-3.3c-0.1,0-0.2,0-0.3-0.1c-0.1-0.1-0.1-0.2-0.1-0.3V45.2c0-0.1,0-0.2,0.1-0.3
		c0.1-0.1,0.2-0.1,0.3-0.1H450.1z M450.1,65.1c0.4,0,0.7-0.1,0.8-0.3c0.2-0.2,0.3-0.5,0.3-0.8V48.1c0-0.3-0.1-0.6-0.3-0.8
		c-0.2-0.2-0.5-0.3-0.8-0.3H449v18.2H450.1z"/>
	<path class="st2" d="M467.6,52.7c-0.4,0-0.6-0.1-0.8-0.3s-0.3-0.5-0.3-0.8v-3.8c0-0.3-0.1-0.6-0.3-0.8c-0.2-0.2-0.5-0.3-0.8-0.3
		c-0.4,0-0.7,0.1-0.8,0.3c-0.2,0.2-0.3,0.5-0.3,0.8c0,1,0.1,1.9,0.2,2.7c0.1,0.7,0.3,1.4,0.5,2c0.2,0.6,0.5,1.1,0.8,1.5
		c0.3,0.5,0.6,0.9,0.9,1.4s0.6,0.9,0.9,1.5c0.3,0.5,0.5,1.1,0.8,1.8s0.4,1.5,0.5,2.4c0.1,0.9,0.2,2,0.2,3.3c0,0.5-0.1,1-0.3,1.4
		s-0.4,0.7-0.7,1c-0.3,0.3-0.7,0.5-1.2,0.7c-0.4,0.2-0.9,0.2-1.5,0.2c-1.2,0-2-0.3-2.7-0.9s-1-1.4-1-2.4v-4.7c0-0.1,0-0.2,0.1-0.3
		c0.1-0.1,0.2-0.1,0.3-0.1h1.1c0.4,0,0.6,0.1,0.8,0.3s0.3,0.5,0.3,0.8v4c0,0.3,0.1,0.6,0.3,0.8s0.5,0.3,0.8,0.3
		c0.4,0,0.7-0.1,0.8-0.3s0.3-0.5,0.3-0.8c0-1.2-0.1-2.3-0.2-3.1c-0.1-0.9-0.3-1.6-0.5-2.2s-0.5-1.2-0.8-1.6
		c-0.3-0.5-0.6-0.9-0.9-1.3c-0.3-0.4-0.6-0.9-0.9-1.3c-0.3-0.5-0.5-1-0.8-1.6s-0.4-1.3-0.5-2.2c-0.1-0.8-0.2-1.9-0.2-3.1
		c0-0.5,0.1-1,0.3-1.4c0.2-0.4,0.4-0.7,0.7-1c0.3-0.3,0.7-0.5,1.1-0.7s0.9-0.2,1.5-0.2c1.2,0,2,0.3,2.7,0.9c0.6,0.6,1,1.4,1,2.4v4.5
		c0,0.1,0,0.2-0.1,0.3c-0.1,0.1-0.2,0.1-0.3,0.1H467.6z"/>
	<path class="st2" d="M482.6,44.8c0.1,0,0.2,0,0.3,0.1c0.1,0.1,0.1,0.2,0.1,0.3v0.6c0,0.3-0.1,0.6-0.3,0.8c-0.2,0.2-0.4,0.3-0.7,0.3
		h-2.3v8.2h2.5c0.1,0,0.2,0,0.3,0.1c0.1,0.1,0.1,0.2,0.1,0.3v0.6c0,0.3-0.1,0.6-0.3,0.8c-0.2,0.2-0.4,0.3-0.7,0.3h-2v7.9h2.3
		c0.3,0,0.5,0.1,0.7,0.3c0.2,0.2,0.3,0.5,0.3,0.8v0.6c0,0.1,0,0.2-0.1,0.3c-0.1,0.1-0.2,0.1-0.3,0.1h-5.1c-0.1,0-0.2,0-0.3-0.1
		c-0.1-0.1-0.1-0.2-0.1-0.3V45.2c0-0.1,0-0.2,0.1-0.3c0.1-0.1,0.2-0.1,0.3-0.1H482.6z"/>
	<path class="st2" d="M493.7,66.6c0,0.2-0.1,0.4-0.2,0.5c-0.1,0.1-0.3,0.2-0.5,0.2h-1.2c-0.2,0-0.4-0.1-0.5-0.2
		c-0.1-0.1-0.2-0.3-0.2-0.5v-8.3l-1.9-13c0-0.1,0-0.2,0.1-0.3c0.1-0.1,0.2-0.1,0.3-0.1h1.1c0.4,0,0.6,0.1,0.8,0.3s0.3,0.5,0.3,0.8
		l0.7,8.1l0.7-8.1c0-0.3,0.1-0.6,0.3-0.8s0.4-0.3,0.8-0.3h1.1c0.1,0,0.2,0,0.3,0.1c0.1,0.1,0.1,0.2,0.1,0.3l-2,13V66.6z"/>
	<path class="st2" d="M519.5,44.8c0.5,0,1,0.1,1.5,0.2c0.4,0.2,0.8,0.4,1.2,0.7c0.3,0.3,0.6,0.6,0.7,1c0.2,0.4,0.3,0.9,0.3,1.4v5.5
		c0,0.6-0.1,1-0.3,1.4c-0.2,0.4-0.5,0.6-0.9,0.9c0.4,0.2,0.7,0.5,0.9,0.8c0.2,0.3,0.3,0.8,0.3,1.3v6c0,1-0.3,1.8-1,2.4
		c-0.7,0.6-1.5,0.9-2.7,0.9h-3.3c-0.1,0-0.2,0-0.3-0.1c-0.1-0.1-0.1-0.2-0.1-0.3V45.2c0-0.1,0-0.2,0.1-0.3c0.1-0.1,0.2-0.1,0.3-0.1
		H519.5z M519.5,54.7c0.4,0,0.7-0.1,0.8-0.3c0.2-0.2,0.3-0.5,0.3-0.8v-5.5c0-0.3-0.1-0.6-0.3-0.8c-0.2-0.2-0.5-0.3-0.8-0.3h-1.1v7.8
		H519.5z M518.4,56.9v8.3h1.1c0.4,0,0.7-0.1,0.8-0.3c0.2-0.2,0.3-0.5,0.3-0.8v-6c0-0.3-0.1-0.6-0.3-0.8c-0.2-0.2-0.5-0.3-0.8-0.3
		H518.4z"/>
	<path class="st2" d="M535.3,44.8c0.1,0,0.2,0,0.3,0.1c0.1,0.1,0.1,0.2,0.1,0.3l2.1,21.6c0,0.1,0,0.2-0.1,0.3s-0.2,0.2-0.4,0.2h-0.9
		c-0.3,0-0.6-0.1-0.8-0.3s-0.3-0.4-0.4-0.7l-0.2-3.1h-1.6l-0.2,3.1c0,0.3-0.1,0.5-0.4,0.7s-0.5,0.3-0.8,0.3h-0.9
		c-0.2,0-0.3-0.1-0.4-0.2s-0.1-0.2-0.1-0.3l2.1-21.6c0-0.1,0.1-0.2,0.1-0.3c0.1-0.1,0.2-0.1,0.3-0.1H535.3z M533.6,61.1h1.3
		l-0.7-10.8L533.6,61.1z"/>
	<path class="st2" d="M545.8,67.3c-0.1,0-0.2,0-0.3-0.1c-0.1-0.1-0.1-0.2-0.1-0.3V45.2c0-0.1,0-0.2,0.1-0.3c0.1-0.1,0.2-0.1,0.3-0.1
		h1.1c0.3,0,0.6,0.1,0.8,0.3c0.2,0.2,0.3,0.4,0.3,0.7v19.3h2.3c0.3,0,0.5,0.1,0.7,0.3c0.2,0.2,0.3,0.5,0.3,0.8v0.6
		c0,0.1,0,0.2-0.1,0.3c-0.1,0.1-0.2,0.1-0.3,0.1H545.8z"/>
	<path class="st2" d="M559.1,67.3c-0.1,0-0.2,0-0.3-0.1c-0.1-0.1-0.1-0.2-0.1-0.3V45.2c0-0.1,0-0.2,0.1-0.3c0.1-0.1,0.2-0.1,0.3-0.1
		h1.1c0.3,0,0.6,0.1,0.8,0.3c0.2,0.2,0.3,0.4,0.3,0.7v19.3h2.3c0.3,0,0.5,0.1,0.7,0.3c0.2,0.2,0.3,0.5,0.3,0.8v0.6
		c0,0.1,0,0.2-0.1,0.3c-0.1,0.1-0.2,0.1-0.3,0.1H559.1z"/>
	<path class="st2" d="M572.1,47.8c0-1,0.3-1.8,1-2.4c0.6-0.6,1.5-0.9,2.7-0.9c0.5,0,1,0.1,1.5,0.2c0.4,0.2,0.8,0.4,1.2,0.7
		c0.3,0.3,0.6,0.6,0.7,1c0.2,0.4,0.3,0.9,0.3,1.4v16.5c0,1-0.3,1.8-1,2.4c-0.6,0.6-1.5,0.9-2.7,0.9c-0.6,0-1.1-0.1-1.5-0.2
		c-0.4-0.2-0.8-0.4-1.2-0.7c-0.3-0.3-0.6-0.6-0.7-1s-0.3-0.9-0.3-1.4V47.8z M576.9,47.8c0-0.3-0.1-0.6-0.3-0.8
		c-0.2-0.2-0.5-0.3-0.8-0.3c-0.4,0-0.6,0.1-0.8,0.3s-0.3,0.5-0.3,0.8v16.5c0,0.3,0.1,0.6,0.3,0.8c0.2,0.2,0.5,0.3,0.8,0.3
		c0.4,0,0.6-0.1,0.8-0.3s0.3-0.5,0.3-0.8V47.8z"/>
	<path class="st2" d="M594.8,64.3c0,1-0.3,1.8-1,2.4c-0.6,0.6-1.5,0.9-2.7,0.9c-0.6,0-1.1-0.1-1.5-0.2c-0.4-0.2-0.8-0.4-1.2-0.7
		c-0.3-0.3-0.6-0.6-0.7-1s-0.3-0.9-0.3-1.4V45.2c0-0.1,0-0.2,0.1-0.3c0.1-0.1,0.2-0.1,0.3-0.1h1.1c0.3,0,0.6,0.1,0.8,0.3
		c0.2,0.2,0.3,0.4,0.3,0.7v18.5c0,0.3,0.1,0.6,0.3,0.8c0.2,0.2,0.5,0.3,0.8,0.3c0.4,0,0.6-0.1,0.8-0.3s0.3-0.5,0.3-0.8V45.8
		c0-0.3,0.1-0.5,0.3-0.7c0.2-0.2,0.5-0.3,0.8-0.3h1.1c0.1,0,0.2,0,0.3,0.1c0.1,0.1,0.1,0.2,0.1,0.3V64.3z"/>
</g>
<polygon class="st2" points="502.3,123.9 496.9,116.8 502.3,117.5 506.4,118.5 "/>
<g>
	<path class="st3" d="M444.2,40.5l-23.8-25.8c0,0,0,0-0.1-0.1c9,0,159.2,0,159.2,0"/>
	<path class="st3" d="M555.6,40.5l23.8-25.8c0,0,0,0,0.1-0.1c-9,0-159.2,0-159.2,0"/>
</g>
<line class="st4" x1="466" y1="73.1" x2="501.7" y2="119.5"/>
<line class="st3" x1="538.2" y1="73.1" x2="502.5" y2="119.5"/>
<g>
	<line class="st5" x1="384.7" y1="40.7" x2="3" y2="40.7"/>
	<line class="st5" x1="1002.3" y1="40.7" x2="621.8" y2="40.7"/>
</g>
</svg>
