<?xml version="1.0" encoding="utf-8"?>
<!-- Generator: Adobe Illustrator 21.0.0, SVG Export Plug-In . SVG Version: 6.00 Build 0)  -->
<svg version="1.1" id="Layer_1" xmlns="http://www.w3.org/2000/svg" xmlns:xlink="http://www.w3.org/1999/xlink" x="0px" y="0px"
	 viewBox="0 0 232.6 103.5" style="enable-background:new 0 0 232.6 103.5;" xml:space="preserve">
<style type="text/css">
	.st0{fill:#FFFFFF;stroke:#00A6AD;stroke-width:5;stroke-miterlimit:10;}
	.st1{fill:#00A6AD;}
</style>
<rect x="2.5" y="2.5" class="st0" width="227.6" height="98.5"/>
<g>
	<path class="st1" d="M31.2,29.9h6.7l14.9,39h-7.8l-3.6-9.7H27.6L24.1,69h-7.8L31.2,29.9z M39.9,53.9l-5.4-15.3l-5.6,15.3H39.9z"/>
	<path class="st1" d="M90.7,58.9c0,1.6-0.3,3.1-1,4.3c-0.7,1.2-1.6,2.3-2.7,3.1c-1.2,0.8-2.5,1.5-4,1.9c-1.5,0.4-3.1,0.7-4.9,0.7
		H59.2v-39h20.9c1.4,0,2.6,0.3,3.7,0.9c1.1,0.6,2,1.3,2.8,2.3c0.8,0.9,1.4,2,1.8,3.2c0.4,1.2,0.6,2.4,0.6,3.6c0,1.9-0.5,3.7-1.4,5.4
		c-1,1.7-2.3,2.9-4.2,3.7c2.2,0.7,4,1.8,5.3,3.5S90.7,56.3,90.7,58.9z M66.8,36.4v9.8h10.1c1.3,0,2.4-0.4,3.3-1.3
		c0.9-0.9,1.3-2.1,1.3-3.6c0-1.5-0.4-2.7-1.2-3.6c-0.8-0.9-1.8-1.3-3.1-1.3H66.8z M83,57.5c0-0.7-0.1-1.4-0.4-2s-0.6-1.2-1-1.7
		c-0.4-0.5-0.9-0.9-1.4-1.1s-1.2-0.4-1.8-0.4H66.8v10.3h11.3c0.7,0,1.3-0.1,2-0.4c0.6-0.3,1.1-0.6,1.6-1.1c0.4-0.5,0.8-1,1-1.6
		C82.9,58.8,83,58.2,83,57.5z"/>
	<path class="st1" d="M115.5,69.3c-2.9,0-5.5-0.6-7.8-1.7c-2.3-1.1-4.3-2.6-6-4.5c-1.7-1.9-3-4-3.9-6.4c-0.9-2.4-1.4-4.8-1.4-7.3
		c0-2.6,0.5-5.1,1.5-7.5c1-2.4,2.3-4.5,4-6.3c1.7-1.8,3.7-3.3,6.1-4.4c2.3-1.1,4.9-1.6,7.6-1.6c2.8,0,5.4,0.6,7.7,1.7
		c2.3,1.2,4.3,2.7,6,4.5c1.7,1.9,2.9,4,3.9,6.4c0.9,2.4,1.4,4.8,1.4,7.3c0,2.6-0.5,5.1-1.4,7.5c-1,2.4-2.3,4.5-4,6.3
		c-1.7,1.8-3.7,3.3-6,4.3C120.8,68.7,118.2,69.3,115.5,69.3z M104.1,49.5c0,1.7,0.3,3.3,0.8,4.9c0.5,1.6,1.3,3,2.2,4.2
		s2.2,2.2,3.6,2.9c1.4,0.7,3,1.1,4.8,1.1c1.8,0,3.5-0.4,4.9-1.1c1.4-0.8,2.6-1.8,3.6-3c1-1.2,1.7-2.6,2.2-4.2
		c0.5-1.6,0.7-3.1,0.7-4.8c0-1.7-0.3-3.3-0.8-4.9c-0.5-1.6-1.3-3-2.3-4.2s-2.2-2.2-3.6-2.9c-1.4-0.7-3-1.1-4.8-1.1
		c-1.8,0-3.5,0.4-4.9,1.1c-1.4,0.8-2.6,1.7-3.6,3c-1,1.2-1.7,2.6-2.2,4.2C104.4,46.3,104.1,47.8,104.1,49.5z"/>
	<path class="st1" d="M159.1,62.5c1.8,0,3.3-0.4,4.5-1.1c1.2-0.7,2.2-1.7,3-2.9c0.8-1.2,1.3-2.5,1.6-4c0.3-1.5,0.5-3.1,0.5-4.7V29.9
		h7.5v19.9c0,2.7-0.3,5.2-1,7.5c-0.6,2.3-1.7,4.4-3,6.2c-1.4,1.8-3.1,3.2-5.3,4.2c-2.2,1-4.7,1.5-7.8,1.5c-3.1,0-5.8-0.5-7.9-1.6
		c-2.2-1.1-4-2.5-5.3-4.3c-1.4-1.8-2.3-3.8-2.9-6.2c-0.6-2.3-0.9-4.8-0.9-7.3V29.9h7.6v19.9c0,1.6,0.2,3.2,0.5,4.8
		c0.3,1.5,0.8,2.9,1.6,4c0.8,1.2,1.7,2.1,2.9,2.8C155.8,62.2,157.3,62.5,159.1,62.5z"/>
	<path class="st1" d="M215.2,36.6h-12.5V69h-7.5V36.6h-12.5v-6.7h32.5V36.6z"/>
</g>
</svg>
