<?xml version="1.0" encoding="utf-8"?>
<!-- Generator: Adobe Illustrator 21.0.0, SVG Export Plug-In . SVG Version: 6.00 Build 0)  -->
<svg version="1.1" id="Layer_1" xmlns="http://www.w3.org/2000/svg" xmlns:xlink="http://www.w3.org/1999/xlink" x="0px" y="0px"
	 viewBox="0 0 232.6 103.5" style="enable-background:new 0 0 232.6 103.5;" xml:space="preserve">
<style type="text/css">
	.st0{fill:#FFFFFF;stroke:#00A6AD;stroke-width:5;stroke-miterlimit:10;}
	.st1{fill:#00A6AD;}
</style>
<rect x="2.5" y="2.5" class="st0" width="227.6" height="98.5"/>
<g>
	<path class="st1" d="M20.5,69v-39H37c1.8,0,3.5,0.4,5,1.1c1.5,0.8,2.8,1.7,3.9,3c1.1,1.2,2,2.6,2.6,4.2c0.6,1.6,0.9,3.1,0.9,4.7
		c0,1.6-0.3,3.3-0.9,4.8c-0.6,1.6-1.4,2.9-2.5,4.2c-1.1,1.2-2.3,2.2-3.8,2.9c-1.5,0.7-3.2,1.1-5,1.1h-9.2V69H20.5z M28.1,49.2h8.8
		c1.4,0,2.6-0.6,3.5-1.7c0.9-1.1,1.4-2.7,1.4-4.6c0-1-0.1-1.9-0.4-2.7c-0.3-0.8-0.7-1.5-1.2-2c-0.5-0.5-1-1-1.7-1.2
		c-0.6-0.3-1.3-0.4-2-0.4h-8.5V49.2z"/>
	<path class="st1" d="M89.8,29.9v39h-7.5V52.3H64.5V69H57v-39h7.6v15.8h17.7V29.9H89.8z"/>
	<path class="st1" d="M116.8,69.3c-2.9,0-5.5-0.6-7.8-1.7c-2.3-1.1-4.3-2.6-6-4.5c-1.7-1.9-3-4-3.9-6.4c-0.9-2.4-1.4-4.8-1.4-7.3
		c0-2.6,0.5-5.1,1.5-7.5c1-2.4,2.3-4.5,4-6.3c1.7-1.8,3.7-3.3,6.1-4.4c2.3-1.1,4.9-1.6,7.6-1.6c2.8,0,5.4,0.6,7.7,1.7
		c2.3,1.2,4.3,2.7,6,4.5c1.7,1.9,2.9,4,3.9,6.4c0.9,2.4,1.4,4.8,1.4,7.3c0,2.6-0.5,5.1-1.4,7.5s-2.3,4.5-4,6.3
		c-1.7,1.8-3.7,3.3-6,4.3C122.1,68.7,119.5,69.3,116.8,69.3z M105.5,49.5c0,1.7,0.3,3.3,0.8,4.9s1.3,3,2.2,4.2s2.2,2.2,3.6,2.9
		c1.4,0.7,3,1.1,4.8,1.1c1.8,0,3.5-0.4,4.9-1.1c1.4-0.8,2.6-1.8,3.6-3c1-1.2,1.7-2.6,2.2-4.2c0.5-1.6,0.7-3.1,0.7-4.8
		c0-1.7-0.3-3.3-0.8-4.9c-0.5-1.6-1.3-3-2.3-4.2s-2.2-2.2-3.6-2.9c-1.4-0.7-3-1.1-4.8-1.1c-1.8,0-3.5,0.4-4.9,1.1
		c-1.4,0.8-2.6,1.7-3.6,3c-1,1.2-1.7,2.6-2.2,4.2C105.7,46.3,105.5,47.8,105.5,49.5z"/>
	<path class="st1" d="M171.3,36.6h-12.5V69h-7.5V36.6h-12.5v-6.7h32.5V36.6z"/>
	<path class="st1" d="M193.2,69.3c-2.9,0-5.5-0.6-7.8-1.7c-2.3-1.1-4.3-2.6-6-4.5c-1.7-1.9-3-4-3.9-6.4c-0.9-2.4-1.4-4.8-1.4-7.3
		c0-2.6,0.5-5.1,1.5-7.5c1-2.4,2.3-4.5,4-6.3c1.7-1.8,3.7-3.3,6.1-4.4c2.3-1.1,4.9-1.6,7.6-1.6c2.8,0,5.4,0.6,7.7,1.7
		c2.3,1.2,4.3,2.7,6,4.5c1.7,1.9,2.9,4,3.9,6.4c0.9,2.4,1.4,4.8,1.4,7.3c0,2.6-0.5,5.1-1.4,7.5s-2.3,4.5-4,6.3
		c-1.7,1.8-3.7,3.3-6,4.3C198.5,68.7,195.9,69.3,193.2,69.3z M181.9,49.5c0,1.7,0.3,3.3,0.8,4.9s1.3,3,2.2,4.2s2.2,2.2,3.6,2.9
		c1.4,0.7,3,1.1,4.8,1.1c1.8,0,3.5-0.4,4.9-1.1c1.4-0.8,2.6-1.8,3.6-3c1-1.2,1.7-2.6,2.2-4.2c0.5-1.6,0.7-3.1,0.7-4.8
		c0-1.7-0.3-3.3-0.8-4.9c-0.5-1.6-1.3-3-2.3-4.2s-2.2-2.2-3.6-2.9c-1.4-0.7-3-1.1-4.8-1.1c-1.8,0-3.5,0.4-4.9,1.1
		c-1.4,0.8-2.6,1.7-3.6,3c-1,1.2-1.7,2.6-2.2,4.2C182.1,46.3,181.9,47.8,181.9,49.5z"/>
</g>
</svg>
