<?xml version="1.0" encoding="utf-8"?>
<!-- Generator: Adobe Illustrator 21.0.0, SVG Export Plug-In . SVG Version: 6.00 Build 0)  -->
<svg version="1.1" id="Layer_1" xmlns="http://www.w3.org/2000/svg" xmlns:xlink="http://www.w3.org/1999/xlink" x="0px" y="0px"
	 viewBox="0 0 1920 1080" style="enable-background:new 0 0 1920 1080;" xml:space="preserve">
<style type="text/css">
	.st0{fill:#00A6AD;}
	.st1{fill:#FFFFFF;stroke:#00A6AD;stroke-width:14;stroke-miterlimit:10;}
</style>
<polygon class="st0" points="406.5,92.4 960,987.6 1513.5,92.4 "/>
<g>
	<path class="st1" d="M315.4,660.3V346.6h62.5v260.2h164v53.5H315.4z"/>
	<path class="st1" d="M839.1,579.4c0,13.3-2.7,24.9-8.2,34.9c-5.4,10-12.9,18.4-22.4,25.2c-9.5,6.8-20.5,11.9-33.1,15.5
		c-12.5,3.5-25.9,5.3-40.1,5.3H579.9V346.6h172.1c11.2,0,21.3,2.4,30.4,7.1c9.1,4.7,16.8,10.8,23.1,18.3
		c6.3,7.5,11.2,16.1,14.7,25.6c3.5,9.6,5.2,19.2,5.2,28.9c0,15.3-3.9,29.7-11.8,43.1c-7.9,13.4-19.3,23.3-34.4,29.8
		c18.4,5.3,33,14.8,43.7,28.5C833.7,541.7,839.1,558.8,839.1,579.4z M642.4,398.8v79.1h83.4c10.6,0,19.6-3.5,27-10.6
		c7.4-7.1,11.1-16.8,11.1-29.2c0-12.1-3.4-21.6-10.2-28.7c-6.8-7.1-15.2-10.6-25.1-10.6H642.4z M776.1,567.9c0-5.6-1-11-2.9-16.1
		c-2-5.1-4.6-9.6-7.9-13.5c-3.3-3.8-7.2-6.8-11.8-9.1c-4.5-2.2-9.5-3.3-14.9-3.3h-96v82.6h92.9c5.7,0,11.1-1,16.1-3.1
		c5-2.1,9.3-4.9,12.9-8.6c3.6-3.7,6.5-8,8.6-13C775,578.8,776.1,573.5,776.1,567.9z"/>
	<path class="st1" d="M1150.3,660.3V452.6l-82.9,154.6h-34l-82.9-154.6v207.6H888V346.6h67l95.1,178.5l96-178.5h66.6v313.6H1150.3z"
		/>
	<path class="st1" d="M1542.1,660.3V452.6l-82.9,154.6h-34l-82.9-154.6v207.6h-62.5V346.6h67l95.1,178.5l96-178.5h66.6v313.6H1542.1
		z"/>
</g>
</svg>
