<?xml version="1.0" encoding="utf-8"?>
<!-- Generator: Adobe Illustrator 21.0.0, SVG Export Plug-In . SVG Version: 6.00 Build 0)  -->
<svg version="1.1" id="Layer_1" xmlns="http://www.w3.org/2000/svg" xmlns:xlink="http://www.w3.org/1999/xlink" x="0px" y="0px"
	 viewBox="0 0 1004.3 179.2" style="enable-background:new 0 0 1004.3 179.2;" xml:space="preserve">
<style type="text/css">
	.st0{fill:#FFFFFF;}
	.st1{fill:none;}
	.st2{fill:#00A6AD;stroke:#00A6AD;stroke-width:0.25;stroke-miterlimit:10;}
	.st3{fill:#00A6AD;stroke:#00A6AD;stroke-width:0.5;stroke-miterlimit:10;}
	.st4{fill:#FFFFFF;stroke:#00A6AD;stroke-width:3;stroke-miterlimit:10;}
	.st5{fill:#00A6AD;}
	.st6{fill:#00A6AD;stroke:#00A6AD;stroke-width:3;stroke-miterlimit:10;}
	.st7{stroke:#00A6AD;stroke-width:2;stroke-miterlimit:10;}
</style>
<rect x="0.2" y="-7" class="st0" width="1003.3" height="91.4"/>
<rect x="1" y="54.7" class="st0" width="1003.3" height="133.5"/>
<g>
	<rect x="453.1" y="144.5" class="st1" width="99.4" height="14.7"/>
	<path class="st2" d="M459.6,146.7c0.1-0.5,0.1-0.9,0.2-1.2c0.1-0.3,0.2-0.5,0.2-0.7c0.1-0.2,0.2-0.3,0.3-0.3c0.1,0,0.2-0.1,0.3-0.1
		h0.8c0.1,0,0.1,0,0.2,0.1c0,0,0.1,0.1,0.1,0.2v12.4c0,0.1,0,0.1-0.1,0.2c0,0-0.1,0.1-0.2,0.1h-0.6c-0.2,0-0.4-0.1-0.5-0.2
		s-0.2-0.3-0.2-0.5l0.3-8.3l-1,8.4c0,0.2-0.1,0.3-0.3,0.4c-0.2,0.1-0.3,0.2-0.5,0.2h0c-0.2,0-0.3-0.1-0.5-0.2
		c-0.2-0.1-0.2-0.2-0.3-0.4l-1-8.4l0.3,8.3c0,0.2,0,0.3-0.2,0.5s-0.3,0.2-0.5,0.2H456c-0.1,0-0.1,0-0.2-0.1c0,0-0.1-0.1-0.1-0.2
		v-12.4c0-0.1,0-0.1,0.1-0.2c0,0,0.1-0.1,0.2-0.1h0.7c0.1,0,0.2,0,0.3,0.1c0.1,0,0.2,0.1,0.3,0.3c0.1,0.2,0.2,0.4,0.2,0.7
		c0.1,0.3,0.1,0.7,0.2,1.2l0.9,6.8L459.6,146.7z"/>
	<path class="st2" d="M471.3,155.7c0,0.6-0.2,1-0.6,1.4c-0.4,0.3-0.9,0.5-1.5,0.5c-0.3,0-0.6,0-0.9-0.1c-0.3-0.1-0.5-0.2-0.7-0.4
		c-0.2-0.2-0.3-0.4-0.4-0.6s-0.1-0.5-0.1-0.8v-10.9c0-0.1,0-0.1,0.1-0.2c0,0,0.1-0.1,0.2-0.1h0.6c0.2,0,0.3,0.1,0.5,0.2
		s0.2,0.2,0.2,0.4v10.6c0,0.2,0.1,0.4,0.2,0.5c0.1,0.1,0.3,0.2,0.5,0.2c0.2,0,0.4-0.1,0.5-0.2c0.1-0.1,0.2-0.3,0.2-0.5v-10.6
		c0-0.2,0.1-0.3,0.2-0.4s0.3-0.2,0.5-0.2h0.6c0.1,0,0.1,0,0.2,0.1c0,0,0.1,0.1,0.1,0.2V155.7z"/>
	<path class="st2" d="M477,157.4c-0.1,0-0.1,0-0.2-0.1c0,0-0.1-0.1-0.1-0.2v-12.4c0-0.1,0-0.1,0.1-0.2c0,0,0.1-0.1,0.2-0.1h0.6
		c0.2,0,0.3,0.1,0.5,0.2s0.2,0.2,0.2,0.4v11.1h1.3c0.2,0,0.3,0.1,0.4,0.2c0.1,0.1,0.2,0.3,0.2,0.5v0.4c0,0.1,0,0.1-0.1,0.2
		c0,0-0.1,0.1-0.2,0.1H477z"/>
	<path class="st2" d="M488.6,144.5c0.1,0,0.1,0,0.2,0.1c0,0,0.1,0.1,0.1,0.2v0.4c0,0.2-0.1,0.3-0.2,0.5c-0.1,0.1-0.2,0.2-0.4,0.2
		h-0.7V157c0,0.1,0,0.2-0.1,0.3s-0.2,0.1-0.3,0.1h-0.7c-0.1,0-0.2,0-0.3-0.1s-0.1-0.2-0.1-0.3v-11.2h-0.7c-0.2,0-0.3-0.1-0.4-0.2
		s-0.2-0.3-0.2-0.5v-0.4c0-0.1,0-0.1,0.1-0.2c0,0,0.1-0.1,0.2-0.1H488.6z"/>
	<path class="st2" d="M494,145.1c0-0.2,0.1-0.3,0.2-0.4s0.3-0.2,0.5-0.2h0.6c0.1,0,0.1,0,0.2,0.1c0,0,0.1,0.1,0.1,0.2V157
		c0,0.1,0,0.2-0.1,0.3s-0.2,0.1-0.3,0.1h-0.7c-0.1,0-0.2,0-0.3-0.1s-0.1-0.2-0.1-0.3V145.1z"/>
	<path class="st2" d="M500.8,151.1c-0.1,0-0.1,0-0.2-0.1c0,0-0.1-0.1-0.1-0.2v-0.4c0-0.2,0-0.3,0.2-0.5c0.1-0.1,0.2-0.2,0.4-0.2h3.4
		c0.1,0,0.1,0,0.2,0.1c0,0,0.1,0.1,0.1,0.2v0.4c0,0.2-0.1,0.3-0.2,0.5c-0.1,0.1-0.2,0.2-0.4,0.2H500.8z"/>
	<path class="st2" d="M513.7,146.7c0.1-0.5,0.1-0.9,0.2-1.2c0.1-0.3,0.2-0.5,0.2-0.7s0.2-0.3,0.3-0.3s0.2-0.1,0.3-0.1h0.8
		c0.1,0,0.1,0,0.2,0.1s0.1,0.1,0.1,0.2v12.4c0,0.1,0,0.1-0.1,0.2s-0.1,0.1-0.2,0.1h-0.6c-0.2,0-0.4-0.1-0.5-0.2s-0.2-0.3-0.2-0.5
		l0.3-8.3l-1,8.4c0,0.2-0.1,0.3-0.3,0.4s-0.3,0.2-0.5,0.2h0c-0.2,0-0.3-0.1-0.5-0.2s-0.2-0.2-0.3-0.4l-1-8.4l0.3,8.3
		c0,0.2,0,0.3-0.2,0.5s-0.3,0.2-0.5,0.2h-0.6c-0.1,0-0.1,0-0.2-0.1c0,0-0.1-0.1-0.1-0.2v-12.4c0-0.1,0-0.1,0.1-0.2
		c0,0,0.1-0.1,0.2-0.1h0.7c0.1,0,0.2,0,0.3,0.1c0.1,0,0.2,0.1,0.3,0.3c0.1,0.2,0.2,0.4,0.2,0.7c0.1,0.3,0.1,0.7,0.2,1.2l0.9,6.8
		L513.7,146.7z"/>
	<path class="st2" d="M524.4,144.5c0.1,0,0.1,0,0.2,0.1s0.1,0.1,0.1,0.2v0.4c0,0.2-0.1,0.3-0.2,0.5c-0.1,0.1-0.2,0.2-0.4,0.2h-1.3
		v4.7h1.4c0.1,0,0.1,0,0.2,0.1c0,0,0.1,0.1,0.1,0.2v0.4c0,0.2-0.1,0.3-0.2,0.5c-0.1,0.1-0.2,0.2-0.4,0.2h-1.1v4.5h1.3
		c0.2,0,0.3,0.1,0.4,0.2c0.1,0.1,0.2,0.3,0.2,0.5v0.4c0,0.1,0,0.1-0.1,0.2c0,0-0.1,0.1-0.2,0.1h-2.9c-0.1,0-0.1,0-0.2-0.1
		c0,0-0.1-0.1-0.1-0.2v-12.4c0-0.1,0-0.1,0.1-0.2c0,0,0.1-0.1,0.2-0.1H524.4z"/>
	<path class="st2" d="M531.9,144.5c0.3,0,0.6,0,0.8,0.1c0.3,0.1,0.5,0.2,0.7,0.4c0.2,0.2,0.3,0.4,0.4,0.6c0.1,0.2,0.1,0.5,0.1,0.8
		v9.1c0,0.6-0.2,1-0.6,1.4c-0.4,0.3-0.9,0.5-1.5,0.5H530c-0.1,0-0.1,0-0.2-0.1c0,0-0.1-0.1-0.1-0.2v-12.4c0-0.1,0-0.1,0.1-0.2
		c0,0,0.1-0.1,0.2-0.1H531.9z M531.8,156.2c0.2,0,0.4-0.1,0.5-0.2c0.1-0.1,0.2-0.3,0.2-0.5v-9.1c0-0.2,0-0.3-0.1-0.5
		c-0.1-0.1-0.3-0.2-0.5-0.2h-0.6v10.4H531.8z"/>
	<path class="st2" d="M539.4,145.1c0-0.2,0.1-0.3,0.2-0.4s0.3-0.2,0.5-0.2h0.6c0.1,0,0.1,0,0.2,0.1c0,0,0.1,0.1,0.1,0.2V157
		c0,0.1,0,0.2-0.1,0.3s-0.2,0.1-0.3,0.1h-0.7c-0.1,0-0.2,0-0.3-0.1s-0.1-0.2-0.1-0.3V145.1z"/>
	<path class="st2" d="M548.6,144.5c0.1,0,0.1,0,0.2,0.1c0,0,0.1,0.1,0.1,0.2l1.2,12.4c0,0.1,0,0.1-0.1,0.2c0,0.1-0.1,0.1-0.2,0.1
		h-0.5c-0.2,0-0.3-0.1-0.5-0.2s-0.2-0.2-0.2-0.4l-0.1-1.8h-0.9l-0.1,1.8c0,0.2-0.1,0.3-0.2,0.4s-0.3,0.2-0.5,0.2h-0.5
		c-0.1,0-0.2,0-0.2-0.1c0-0.1-0.1-0.1-0.1-0.2l1.2-12.4c0-0.1,0-0.1,0.1-0.2s0.1-0.1,0.2-0.1H548.6z M547.7,153.9h0.8l-0.4-6.2
		L547.7,153.9z"/>
</g>
<g>
	<rect x="357.6" y="43.8" class="st1" width="289.1" height="33.6"/>
	<path class="st3" d="M364.4,73.3c-0.2,0-0.3,0-0.4-0.1c-0.1-0.1-0.1-0.2-0.1-0.4V44.4c0-0.1,0-0.3,0.1-0.4c0.1-0.1,0.2-0.1,0.4-0.1
		h1.4c0.4,0,0.8,0.1,1.1,0.4c0.3,0.2,0.4,0.5,0.4,0.9v25.4h3.1c0.4,0,0.7,0.1,0.9,0.4c0.2,0.3,0.4,0.6,0.4,1v0.9
		c0,0.2-0.1,0.3-0.2,0.4c-0.1,0.1-0.2,0.1-0.4,0.1H364.4z"/>
	<path class="st3" d="M383.4,45.1c0-0.4,0.1-0.7,0.4-0.9s0.6-0.4,1.1-0.4h1.4c0.2,0,0.3,0,0.4,0.1c0.1,0.1,0.1,0.2,0.1,0.4v28.1
		c0,0.3-0.1,0.5-0.3,0.6c-0.2,0.2-0.4,0.3-0.6,0.3h-1.6c-0.3,0-0.5-0.1-0.6-0.3c-0.2-0.2-0.3-0.4-0.3-0.6V45.1z"/>
	<path class="st3" d="M408.3,43.8c0.2,0,0.3,0,0.4,0.1c0.1,0.1,0.1,0.2,0.1,0.4v28.5c0,0.1,0,0.3-0.1,0.4c-0.1,0.1-0.2,0.1-0.4,0.1
		h-1.4c-0.4,0-0.8-0.1-1-0.3c-0.2-0.2-0.4-0.5-0.4-0.8c0-0.2-0.1-0.6-0.2-1.2s-0.3-1.3-0.5-2.2c-0.2-0.8-0.4-1.8-0.6-2.8
		c-0.2-1-0.5-2-0.7-3.1s-0.5-2.1-0.7-3.1c-0.2-1-0.4-1.9-0.5-2.8l0.3,14.8c0,0.4-0.1,0.8-0.4,1.1s-0.6,0.4-1.1,0.4h-1.4
		c-0.2,0-0.3,0-0.4-0.1c-0.1-0.1-0.1-0.2-0.1-0.4V44.4c0-0.1,0-0.3,0.1-0.4c0.1-0.1,0.2-0.1,0.4-0.1h1.4c0.4,0,0.8,0.1,1,0.3
		c0.3,0.2,0.4,0.5,0.4,0.9c0,0.3,0.1,0.7,0.2,1.4c0.1,0.7,0.3,1.5,0.4,2.4c0.2,0.9,0.4,1.9,0.6,3c0.2,1.1,0.4,2.2,0.7,3.3
		c0.2,1.1,0.4,2.1,0.6,3.1c0.2,1,0.4,1.8,0.6,2.6l-0.3-15.8c0-0.4,0.1-0.7,0.4-0.9s0.6-0.4,1.1-0.4H408.3z"/>
	<path class="st3" d="M426.1,43.8c0.7,0,1.4,0.1,1.9,0.3c0.6,0.2,1.1,0.5,1.5,0.9s0.7,0.8,1,1.4c0.2,0.5,0.3,1.1,0.3,1.8V69
		c0,1.3-0.4,2.4-1.3,3.1c-0.8,0.8-2,1.1-3.5,1.1h-4.3c-0.2,0-0.3,0-0.4-0.1c-0.1-0.1-0.1-0.2-0.1-0.4V44.4c0-0.1,0-0.3,0.1-0.4
		c0.1-0.1,0.2-0.1,0.4-0.1H426.1z M426.1,70.5c0.5,0,0.9-0.1,1.1-0.4c0.2-0.3,0.3-0.6,0.3-1.1V48.1c0-0.4-0.1-0.8-0.3-1.1
		c-0.2-0.3-0.6-0.4-1.1-0.4h-1.4v23.9H426.1z"/>
	<path class="st3" d="M451.1,54.2c-0.5,0-0.8-0.1-1.1-0.4s-0.4-0.6-0.4-1.1v-5c0-0.4-0.1-0.8-0.4-1.1c-0.2-0.3-0.6-0.4-1.1-0.4
		c-0.5,0-0.9,0.1-1.1,0.4s-0.4,0.6-0.4,1.1c0,1.4,0.1,2.5,0.3,3.5c0.2,1,0.4,1.9,0.7,2.6s0.6,1.4,1,2s0.8,1.2,1.1,1.8
		c0.4,0.6,0.8,1.2,1.1,1.9c0.4,0.7,0.7,1.5,1,2.4c0.3,0.9,0.5,2,0.7,3.2c0.2,1.2,0.3,2.6,0.3,4.3c0,0.7-0.1,1.3-0.3,1.8
		c-0.2,0.5-0.5,1-1,1.3c-0.4,0.4-0.9,0.7-1.5,0.9c-0.6,0.2-1.2,0.3-2,0.3c-1.5,0-2.7-0.4-3.5-1.1c-0.8-0.8-1.3-1.8-1.3-3.1v-6.1
		c0-0.2,0-0.3,0.1-0.4c0.1-0.1,0.2-0.2,0.4-0.2h1.4c0.5,0,0.8,0.1,1.1,0.4s0.4,0.6,0.4,1.1v5.2c0,0.4,0.1,0.8,0.4,1.1
		c0.2,0.3,0.6,0.4,1.1,0.4c0.5,0,0.9-0.1,1.1-0.4c0.2-0.3,0.3-0.6,0.3-1.1c0-1.6-0.1-3-0.3-4.1c-0.2-1.1-0.4-2.1-0.7-2.9
		c-0.3-0.8-0.6-1.5-1-2.1s-0.8-1.2-1.1-1.8c-0.4-0.6-0.8-1.1-1.1-1.7c-0.4-0.6-0.7-1.3-1-2.1c-0.3-0.8-0.5-1.8-0.7-2.9
		c-0.2-1.1-0.3-2.4-0.3-4c0-0.7,0.1-1.3,0.3-1.8c0.2-0.5,0.5-1,1-1.3s0.9-0.7,1.5-0.9c0.6-0.2,1.2-0.3,2-0.3c1.5,0,2.7,0.4,3.5,1.1
		c0.8,0.8,1.3,1.8,1.3,3.1v5.9c0,0.2,0,0.3-0.1,0.4c-0.1,0.1-0.2,0.2-0.4,0.2H451.1z"/>
	<path class="st3" d="M472.7,43.8c0.2,0,0.3,0,0.4,0.1c0.1,0.1,0.2,0.2,0.2,0.4v0.9c0,0.4-0.1,0.8-0.4,1c-0.2,0.3-0.5,0.4-0.9,0.4
		h-3.1v10.7h3.3c0.2,0,0.3,0,0.4,0.1c0.1,0.1,0.2,0.2,0.2,0.4v0.9c0,0.4-0.1,0.8-0.4,1c-0.2,0.3-0.5,0.4-0.9,0.4h-2.6v10.4h3.1
		c0.4,0,0.7,0.1,0.9,0.4s0.4,0.6,0.4,1v0.9c0,0.2,0,0.3-0.2,0.4c-0.1,0.1-0.2,0.1-0.4,0.1H466c-0.2,0-0.3,0-0.4-0.1
		c-0.1-0.1-0.1-0.2-0.1-0.4V44.4c0-0.1,0-0.3,0.1-0.4c0.1-0.1,0.2-0.1,0.4-0.1H472.7z"/>
	<path class="st3" d="M489.2,72.4c0,0.3-0.1,0.5-0.3,0.6c-0.2,0.2-0.4,0.3-0.6,0.3h-1.5c-0.3,0-0.5-0.1-0.6-0.3
		c-0.2-0.2-0.3-0.4-0.3-0.6v-11l-2.5-17.1c0-0.1,0-0.3,0.1-0.4c0.1-0.1,0.2-0.1,0.4-0.1h1.4c0.5,0,0.8,0.1,1.1,0.4
		c0.2,0.3,0.4,0.6,0.4,1.1l0.9,10.6l0.9-10.6c0-0.4,0.2-0.8,0.4-1.1c0.2-0.3,0.6-0.4,1.1-0.4h1.4c0.2,0,0.3,0,0.4,0.1
		c0.1,0.1,0.1,0.2,0.1,0.4l-2.6,17.1V72.4z"/>
	<path class="st3" d="M526.9,43.8c0.7,0,1.4,0.1,2,0.3c0.6,0.2,1.1,0.5,1.5,0.9c0.4,0.4,0.8,0.8,1,1.4c0.2,0.5,0.3,1.1,0.3,1.8v7.2
		c0,0.7-0.1,1.3-0.4,1.8c-0.3,0.5-0.7,0.8-1.2,1.1c0.5,0.3,0.9,0.7,1.2,1.1c0.3,0.5,0.4,1,0.4,1.8V69c0,1.3-0.4,2.4-1.3,3.1
		s-2,1.1-3.5,1.1h-4.3c-0.2,0-0.3,0-0.4-0.1c-0.1-0.1-0.1-0.2-0.1-0.4V44.4c0-0.1,0-0.3,0.1-0.4c0.1-0.1,0.2-0.1,0.4-0.1H526.9z
		 M526.9,56.9c0.5,0,0.9-0.1,1.1-0.4c0.2-0.3,0.3-0.6,0.3-1.1v-7.2c0-0.4-0.1-0.8-0.3-1.1c-0.2-0.3-0.6-0.4-1.1-0.4h-1.5v10.2H526.9
		z M525.5,59.7v10.9h1.5c0.5,0,0.9-0.1,1.1-0.4c0.2-0.3,0.3-0.6,0.3-1.1v-7.9c0-0.4-0.1-0.8-0.3-1.1c-0.2-0.3-0.6-0.4-1.1-0.4H525.5
		z"/>
	<path class="st3" d="M549.7,43.8c0.2,0,0.3,0,0.4,0.1c0.1,0.1,0.1,0.2,0.1,0.4l2.8,28.4c0,0.1,0,0.3-0.1,0.4
		c-0.1,0.1-0.3,0.2-0.5,0.2H551c-0.4,0-0.8-0.1-1-0.4c-0.3-0.2-0.4-0.5-0.5-0.9l-0.3-4h-2.1l-0.3,4c0,0.4-0.2,0.6-0.5,0.9
		c-0.3,0.2-0.6,0.4-1,0.4h-1.2c-0.2,0-0.4-0.1-0.5-0.2c-0.1-0.1-0.2-0.3-0.1-0.4l2.8-28.4c0-0.1,0.1-0.3,0.2-0.4
		c0.1-0.1,0.2-0.1,0.3-0.1H549.7z M547.4,65.3h1.7L548.2,51L547.4,65.3z"/>
	<path class="st3" d="M565.3,73.3c-0.2,0-0.3,0-0.4-0.1c-0.1-0.1-0.1-0.2-0.1-0.4V44.4c0-0.1,0-0.3,0.1-0.4c0.1-0.1,0.2-0.1,0.4-0.1
		h1.4c0.4,0,0.8,0.1,1,0.4s0.4,0.5,0.4,0.9v25.4h3.1c0.4,0,0.7,0.1,0.9,0.4s0.4,0.6,0.4,1v0.9c0,0.2,0,0.3-0.2,0.4
		c-0.1,0.1-0.2,0.1-0.4,0.1H565.3z"/>
	<path class="st3" d="M584.8,73.3c-0.2,0-0.3,0-0.4-0.1c-0.1-0.1-0.1-0.2-0.1-0.4V44.4c0-0.1,0-0.3,0.1-0.4c0.1-0.1,0.2-0.1,0.4-0.1
		h1.4c0.4,0,0.8,0.1,1,0.4s0.4,0.5,0.4,0.9v25.4h3.1c0.4,0,0.7,0.1,0.9,0.4s0.4,0.6,0.4,1v0.9c0,0.2,0,0.3-0.2,0.4
		c-0.1,0.1-0.2,0.1-0.4,0.1H584.8z"/>
	<path class="st3" d="M603.8,47.7c0-1.3,0.4-2.4,1.3-3.1c0.8-0.8,2-1.1,3.5-1.1c0.7,0,1.4,0.1,2,0.3c0.6,0.2,1.1,0.5,1.5,0.9
		c0.4,0.4,0.8,0.8,1,1.3c0.2,0.5,0.3,1.1,0.3,1.8v21.7c0,1.3-0.4,2.4-1.3,3.1c-0.8,0.8-2,1.1-3.5,1.1c-0.7,0-1.4-0.1-2-0.3
		c-0.6-0.2-1.1-0.5-1.5-0.9s-0.8-0.8-1-1.3c-0.2-0.5-0.3-1.1-0.3-1.8V47.7z M610,47.7c0-0.4-0.1-0.8-0.3-1.1
		c-0.2-0.3-0.6-0.4-1.1-0.4c-0.5,0-0.8,0.1-1.1,0.4c-0.2,0.3-0.4,0.6-0.4,1.1v21.7c0,0.4,0.1,0.8,0.4,1.1s0.6,0.4,1.1,0.4
		c0.5,0,0.8-0.1,1.1-0.4c0.2-0.3,0.4-0.6,0.4-1.1V47.7z"/>
	<path class="st3" d="M635.5,69.4c0,1.3-0.4,2.4-1.3,3.1c-0.8,0.8-2,1.1-3.5,1.1c-0.7,0-1.4-0.1-2-0.3c-0.6-0.2-1.1-0.5-1.5-0.9
		s-0.8-0.8-1-1.3c-0.2-0.5-0.3-1.1-0.3-1.8V44.4c0-0.1,0-0.3,0.1-0.4c0.1-0.1,0.2-0.1,0.4-0.1h1.4c0.4,0,0.8,0.1,1,0.4
		s0.4,0.5,0.4,0.9v24.3c0,0.4,0.1,0.8,0.4,1.1s0.6,0.4,1.1,0.4c0.5,0,0.8-0.1,1.1-0.4c0.2-0.3,0.4-0.6,0.4-1.1V45.1
		c0-0.4,0.1-0.7,0.4-0.9c0.3-0.2,0.6-0.4,1-0.4h1.4c0.2,0,0.3,0,0.4,0.1c0.1,0.1,0.1,0.2,0.1,0.4V69.4z"/>
</g>
<path class="st4" d="M442.1,40.3l-22-32.6c0,0,0,0-0.1-0.1c9,0,159.2,0,159.2,0"/>
<path class="st4" d="M558.7,39l20.4-31.2c0,0,0,0,0.1-0.1c-9,0-159.2,0-159.2,0"/>
<polygon class="st5" points="503.4,131.3 499.6,126 503.2,127.6 506.8,126.3 "/>
<line class="st6" x1="468.4" y1="80.2" x2="503.2" y2="128.5"/>
<line class="st6" x1="537" y1="80.2" x2="503.5" y2="128.5"/>
<line class="st7" x1="339.3" y1="56.6" x2="-20.9" y2="56.6"/>
<line class="st7" x1="1021" y1="56.6" x2="660.8" y2="56.6"/>
</svg>
