<?xml version="1.0" encoding="utf-8"?>
<!-- Generator: Adobe Illustrator 21.0.0, SVG Export Plug-In . SVG Version: 6.00 Build 0)  -->
<svg version="1.1" id="Layer_1" xmlns="http://www.w3.org/2000/svg" xmlns:xlink="http://www.w3.org/1999/xlink" x="0px" y="0px"
	 viewBox="0 0 1004.3 179.2" style="enable-background:new 0 0 1004.3 179.2;" xml:space="preserve">
<style type="text/css">
	.st0{fill:#FFFFFF;}
	.st1{fill:none;}
	.st2{fill:#00A6AD;}
	.st3{fill:#FFFFFF;stroke:#00A6AD;stroke-width:5;stroke-miterlimit:10;}
	.st4{fill:#00A6AD;stroke:#00A6AD;stroke-width:5;stroke-miterlimit:10;}
	.st5{fill:#00A6AD;stroke:#FFFFFF;stroke-width:2;stroke-miterlimit:10;}
	.st6{fill:#FFFFFF;stroke:#00A6AD;stroke-width:2;stroke-miterlimit:10;}
</style>
<rect x="1" class="st0" width="1003.3" height="91.4"/>
<rect y="45.7" class="st0" width="1003.3" height="133.5"/>
<g>
	<rect x="452.9" y="126.2" class="st1" width="99.4" height="14.7"/>
	<path class="st2" d="M459.4,128.5c0.1-0.5,0.1-0.9,0.2-1.2c0.1-0.3,0.2-0.5,0.2-0.7c0.1-0.2,0.2-0.3,0.3-0.3c0.1,0,0.2-0.1,0.3-0.1
		h0.8c0.1,0,0.1,0,0.2,0.1c0,0,0.1,0.1,0.1,0.2v12.4c0,0.1,0,0.1-0.1,0.2c0,0-0.1,0.1-0.2,0.1h-0.6c-0.2,0-0.4-0.1-0.5-0.2
		s-0.2-0.3-0.2-0.5l0.3-8.3l-1,8.4c0,0.2-0.1,0.3-0.3,0.4c-0.2,0.1-0.3,0.2-0.5,0.2h0c-0.2,0-0.3-0.1-0.5-0.2
		c-0.2-0.1-0.2-0.2-0.3-0.4l-1-8.4l0.3,8.3c0,0.2,0,0.3-0.2,0.5s-0.3,0.2-0.5,0.2h-0.6c-0.1,0-0.1,0-0.2-0.1c0,0-0.1-0.1-0.1-0.2
		v-12.4c0-0.1,0-0.1,0.1-0.2c0,0,0.1-0.1,0.2-0.1h0.7c0.1,0,0.2,0,0.3,0.1c0.1,0,0.2,0.1,0.3,0.3c0.1,0.2,0.2,0.4,0.2,0.7
		c0.1,0.3,0.1,0.7,0.2,1.2l0.9,6.8L459.4,128.5z"/>
	<path class="st2" d="M471.1,137.4c0,0.6-0.2,1-0.6,1.4c-0.4,0.3-0.9,0.5-1.5,0.5c-0.3,0-0.6,0-0.9-0.1c-0.3-0.1-0.5-0.2-0.7-0.4
		c-0.2-0.2-0.3-0.4-0.4-0.6s-0.1-0.5-0.1-0.8v-10.9c0-0.1,0-0.1,0.1-0.2c0,0,0.1-0.1,0.2-0.1h0.6c0.2,0,0.3,0.1,0.5,0.2
		s0.2,0.2,0.2,0.4v10.6c0,0.2,0.1,0.4,0.2,0.5c0.1,0.1,0.3,0.2,0.5,0.2c0.2,0,0.4-0.1,0.5-0.2c0.1-0.1,0.2-0.3,0.2-0.5v-10.6
		c0-0.2,0.1-0.3,0.2-0.4s0.3-0.2,0.5-0.2h0.6c0.1,0,0.1,0,0.2,0.1c0,0,0.1,0.1,0.1,0.2V137.4z"/>
	<path class="st2" d="M476.8,139.1c-0.1,0-0.1,0-0.2-0.1c0,0-0.1-0.1-0.1-0.2v-12.4c0-0.1,0-0.1,0.1-0.2c0,0,0.1-0.1,0.2-0.1h0.6
		c0.2,0,0.3,0.1,0.5,0.2s0.2,0.2,0.2,0.4v11.1h1.3c0.2,0,0.3,0.1,0.4,0.2c0.1,0.1,0.2,0.3,0.2,0.5v0.4c0,0.1,0,0.1-0.1,0.2
		c0,0-0.1,0.1-0.2,0.1H476.8z"/>
	<path class="st2" d="M488.5,126.2c0.1,0,0.1,0,0.2,0.1c0,0,0.1,0.1,0.1,0.2v0.4c0,0.2-0.1,0.3-0.2,0.5c-0.1,0.1-0.2,0.2-0.4,0.2
		h-0.7v11.2c0,0.1,0,0.2-0.1,0.3s-0.2,0.1-0.3,0.1h-0.7c-0.1,0-0.2,0-0.3-0.1s-0.1-0.2-0.1-0.3v-11.2h-0.7c-0.2,0-0.3-0.1-0.4-0.2
		s-0.2-0.3-0.2-0.5v-0.4c0-0.1,0-0.1,0.1-0.2c0,0,0.1-0.1,0.2-0.1H488.5z"/>
	<path class="st2" d="M493.8,126.8c0-0.2,0.1-0.3,0.2-0.4s0.3-0.2,0.5-0.2h0.6c0.1,0,0.1,0,0.2,0.1c0,0,0.1,0.1,0.1,0.2v12.2
		c0,0.1,0,0.2-0.1,0.3s-0.2,0.1-0.3,0.1h-0.7c-0.1,0-0.2,0-0.3-0.1s-0.1-0.2-0.1-0.3V126.8z"/>
	<path class="st2" d="M500.7,132.8c-0.1,0-0.1,0-0.2-0.1c0,0-0.1-0.1-0.1-0.2v-0.4c0-0.2,0-0.3,0.2-0.5c0.1-0.1,0.2-0.2,0.4-0.2h3.4
		c0.1,0,0.1,0,0.2,0.1c0,0,0.1,0.1,0.1,0.2v0.4c0,0.2-0.1,0.3-0.2,0.5c-0.1,0.1-0.2,0.2-0.4,0.2H500.7z"/>
	<path class="st2" d="M513.5,128.5c0.1-0.5,0.1-0.9,0.2-1.2c0.1-0.3,0.2-0.5,0.2-0.7s0.2-0.3,0.3-0.3s0.2-0.1,0.3-0.1h0.8
		c0.1,0,0.1,0,0.2,0.1s0.1,0.1,0.1,0.2v12.4c0,0.1,0,0.1-0.1,0.2s-0.1,0.1-0.2,0.1h-0.6c-0.2,0-0.4-0.1-0.5-0.2s-0.2-0.3-0.2-0.5
		l0.3-8.3l-1,8.4c0,0.2-0.1,0.3-0.3,0.4s-0.3,0.2-0.5,0.2h0c-0.2,0-0.3-0.1-0.5-0.2s-0.2-0.2-0.3-0.4l-1-8.4l0.3,8.3
		c0,0.2,0,0.3-0.2,0.5s-0.3,0.2-0.5,0.2H510c-0.1,0-0.1,0-0.2-0.1c0,0-0.1-0.1-0.1-0.2v-12.4c0-0.1,0-0.1,0.1-0.2
		c0,0,0.1-0.1,0.2-0.1h0.7c0.1,0,0.2,0,0.3,0.1c0.1,0,0.2,0.1,0.3,0.3c0.1,0.2,0.2,0.4,0.2,0.7c0.1,0.3,0.1,0.7,0.2,1.2l0.9,6.8
		L513.5,128.5z"/>
	<path class="st2" d="M524.2,126.2c0.1,0,0.1,0,0.2,0.1s0.1,0.1,0.1,0.2v0.4c0,0.2-0.1,0.3-0.2,0.5c-0.1,0.1-0.2,0.2-0.4,0.2h-1.3
		v4.7h1.4c0.1,0,0.1,0,0.2,0.1c0,0,0.1,0.1,0.1,0.2v0.4c0,0.2-0.1,0.3-0.2,0.5c-0.1,0.1-0.2,0.2-0.4,0.2h-1.1v4.5h1.3
		c0.2,0,0.3,0.1,0.4,0.2c0.1,0.1,0.2,0.3,0.2,0.5v0.4c0,0.1,0,0.1-0.1,0.2c0,0-0.1,0.1-0.2,0.1h-2.9c-0.1,0-0.1,0-0.2-0.1
		c0,0-0.1-0.1-0.1-0.2v-12.4c0-0.1,0-0.1,0.1-0.2c0,0,0.1-0.1,0.2-0.1H524.2z"/>
	<path class="st2" d="M531.7,126.2c0.3,0,0.6,0,0.8,0.1c0.3,0.1,0.5,0.2,0.7,0.4c0.2,0.2,0.3,0.4,0.4,0.6c0.1,0.2,0.1,0.5,0.1,0.8
		v9.1c0,0.6-0.2,1-0.6,1.4c-0.4,0.3-0.9,0.5-1.5,0.5h-1.9c-0.1,0-0.1,0-0.2-0.1c0,0-0.1-0.1-0.1-0.2v-12.4c0-0.1,0-0.1,0.1-0.2
		c0,0,0.1-0.1,0.2-0.1H531.7z M531.7,137.9c0.2,0,0.4-0.1,0.5-0.2c0.1-0.1,0.2-0.3,0.2-0.5v-9.1c0-0.2,0-0.3-0.1-0.5
		c-0.1-0.1-0.3-0.2-0.5-0.2H531v10.4H531.7z"/>
	<path class="st2" d="M539.2,126.8c0-0.2,0.1-0.3,0.2-0.4s0.3-0.2,0.5-0.2h0.6c0.1,0,0.1,0,0.2,0.1c0,0,0.1,0.1,0.1,0.2v12.2
		c0,0.1,0,0.2-0.1,0.3s-0.2,0.1-0.3,0.1h-0.7c-0.1,0-0.2,0-0.3-0.1s-0.1-0.2-0.1-0.3V126.8z"/>
	<path class="st2" d="M548.5,126.2c0.1,0,0.1,0,0.2,0.1c0,0,0.1,0.1,0.1,0.2l1.2,12.4c0,0.1,0,0.1-0.1,0.2c0,0.1-0.1,0.1-0.2,0.1
		h-0.5c-0.2,0-0.3-0.1-0.5-0.2s-0.2-0.2-0.2-0.4l-0.1-1.8h-0.9l-0.1,1.8c0,0.2-0.1,0.3-0.2,0.4s-0.3,0.2-0.5,0.2h-0.5
		c-0.1,0-0.2,0-0.2-0.1c0-0.1-0.1-0.1-0.1-0.2l1.2-12.4c0-0.1,0-0.1,0.1-0.2s0.1-0.1,0.2-0.1H548.5z M547.5,135.6h0.8l-0.4-6.2
		L547.5,135.6z"/>
</g>
<g>
	<rect x="423.1" y="49.7" class="st1" width="159.1" height="23"/>
	<path class="st2" d="M426.8,66.2c-0.1,0-0.2,0-0.2-0.1c0-0.1-0.1-0.1-0.1-0.2V50c0-0.1,0-0.2,0.1-0.2c0-0.1,0.1-0.1,0.2-0.1h0.8
		c0.2,0,0.4,0.1,0.6,0.2c0.1,0.1,0.2,0.3,0.2,0.5v14.2h1.7c0.2,0,0.4,0.1,0.5,0.2s0.2,0.3,0.2,0.6v0.5c0,0.1,0,0.2-0.1,0.2
		c-0.1,0-0.1,0.1-0.2,0.1H426.8z"/>
	<path class="st2" d="M437.5,50.4c0-0.2,0.1-0.4,0.2-0.5c0.1-0.1,0.3-0.2,0.6-0.2h0.8c0.1,0,0.2,0,0.2,0.1c0,0.1,0.1,0.1,0.1,0.2
		v15.7c0,0.1,0,0.3-0.1,0.4c-0.1,0.1-0.2,0.1-0.4,0.1H438c-0.1,0-0.3,0-0.4-0.1c-0.1-0.1-0.1-0.2-0.1-0.4V50.4z"/>
	<path class="st2" d="M451.4,49.7c0.1,0,0.2,0,0.2,0.1c0,0.1,0.1,0.1,0.1,0.2v15.9c0,0.1,0,0.2-0.1,0.2c0,0.1-0.1,0.1-0.2,0.1h-0.8
		c-0.2,0-0.4-0.1-0.6-0.2c-0.1-0.1-0.2-0.3-0.2-0.5c0-0.1,0-0.3-0.1-0.7c-0.1-0.3-0.2-0.7-0.3-1.2c-0.1-0.5-0.2-1-0.4-1.6
		c-0.1-0.6-0.3-1.1-0.4-1.7c-0.1-0.6-0.3-1.2-0.4-1.7c-0.1-0.6-0.2-1.1-0.3-1.6l0.1,8.3c0,0.2-0.1,0.4-0.2,0.6
		c-0.1,0.2-0.3,0.2-0.6,0.2h-0.8c-0.1,0-0.2,0-0.2-0.1c0-0.1-0.1-0.1-0.1-0.2V50c0-0.1,0-0.2,0.1-0.2c0-0.1,0.1-0.1,0.2-0.1h0.8
		c0.2,0,0.4,0.1,0.6,0.2c0.1,0.1,0.2,0.3,0.2,0.5c0,0.1,0.1,0.4,0.1,0.8c0.1,0.4,0.1,0.8,0.3,1.4s0.2,1.1,0.3,1.7
		c0.1,0.6,0.2,1.2,0.4,1.8c0.1,0.6,0.2,1.2,0.4,1.7c0.1,0.5,0.2,1,0.3,1.4l-0.1-8.8c0-0.2,0.1-0.4,0.2-0.5c0.1-0.1,0.3-0.2,0.6-0.2
		H451.4z"/>
	<path class="st2" d="M461.4,49.7c0.4,0,0.8,0.1,1.1,0.2s0.6,0.3,0.8,0.5c0.2,0.2,0.4,0.5,0.5,0.8c0.1,0.3,0.2,0.6,0.2,1v11.7
		c0,0.7-0.2,1.3-0.7,1.8c-0.5,0.4-1.1,0.6-2,0.6H459c-0.1,0-0.2,0-0.2-0.1c0-0.1-0.1-0.1-0.1-0.2V50c0-0.1,0-0.2,0.1-0.2
		c0-0.1,0.1-0.1,0.2-0.1H461.4z M461.4,64.7c0.3,0,0.5-0.1,0.6-0.2c0.1-0.2,0.2-0.4,0.2-0.6V52.1c0-0.2-0.1-0.4-0.2-0.6
		c-0.1-0.2-0.3-0.2-0.6-0.2h-0.8v13.4H461.4z"/>
	<path class="st2" d="M475.3,55.5c-0.3,0-0.5-0.1-0.6-0.2c-0.1-0.2-0.2-0.4-0.2-0.6v-2.8c0-0.3-0.1-0.5-0.2-0.6
		c-0.1-0.2-0.3-0.2-0.6-0.2c-0.3,0-0.5,0.1-0.6,0.2c-0.1,0.2-0.2,0.4-0.2,0.6c0,0.8,0,1.4,0.1,2c0.1,0.6,0.2,1,0.4,1.5
		c0.2,0.4,0.4,0.8,0.6,1.1c0.2,0.3,0.4,0.7,0.6,1s0.4,0.7,0.6,1.1c0.2,0.4,0.4,0.8,0.6,1.3c0.2,0.5,0.3,1.1,0.4,1.8
		c0.1,0.7,0.1,1.5,0.1,2.4c0,0.4-0.1,0.7-0.2,1s-0.3,0.5-0.5,0.8c-0.2,0.2-0.5,0.4-0.9,0.5c-0.3,0.1-0.7,0.2-1.1,0.2
		c-0.8,0-1.5-0.2-2-0.6c-0.5-0.4-0.7-1-0.7-1.8v-3.4c0-0.1,0-0.2,0.1-0.2c0-0.1,0.1-0.1,0.2-0.1h0.8c0.3,0,0.5,0.1,0.6,0.2
		c0.1,0.2,0.2,0.4,0.2,0.6V64c0,0.3,0.1,0.5,0.2,0.6s0.3,0.2,0.6,0.2c0.3,0,0.5-0.1,0.6-0.2c0.1-0.2,0.2-0.4,0.2-0.6
		c0-0.9,0-1.7-0.1-2.3s-0.2-1.2-0.4-1.6c-0.2-0.5-0.4-0.9-0.6-1.2c-0.2-0.3-0.4-0.7-0.6-1c-0.2-0.3-0.4-0.6-0.6-1s-0.4-0.7-0.6-1.2
		c-0.2-0.5-0.3-1-0.4-1.6c-0.1-0.6-0.1-1.4-0.1-2.3c0-0.4,0.1-0.7,0.2-1c0.1-0.3,0.3-0.5,0.5-0.8c0.2-0.2,0.5-0.4,0.8-0.5
		s0.7-0.2,1.1-0.2c0.8,0,1.5,0.2,2,0.6c0.5,0.4,0.7,1,0.7,1.8v3.3c0,0.1,0,0.2-0.1,0.2c0,0.1-0.1,0.1-0.2,0.1H475.3z"/>
	<path class="st2" d="M487.4,49.7c0.1,0,0.2,0,0.2,0.1c0.1,0,0.1,0.1,0.1,0.2v0.5c0,0.2-0.1,0.4-0.2,0.6c-0.1,0.1-0.3,0.2-0.5,0.2
		h-1.7v6h1.9c0.1,0,0.2,0,0.2,0.1c0.1,0,0.1,0.1,0.1,0.2V58c0,0.2-0.1,0.4-0.2,0.6c-0.1,0.1-0.3,0.2-0.5,0.2h-1.4v5.8h1.7
		c0.2,0,0.4,0.1,0.5,0.2s0.2,0.3,0.2,0.6v0.5c0,0.1,0,0.2-0.1,0.2c-0.1,0-0.1,0.1-0.2,0.1h-3.7c-0.1,0-0.2,0-0.2-0.1
		c0-0.1-0.1-0.1-0.1-0.2V50c0-0.1,0-0.2,0.1-0.2c0-0.1,0.1-0.1,0.2-0.1H487.4z"/>
	<path class="st2" d="M496.7,65.7c0,0.1-0.1,0.3-0.1,0.4c-0.1,0.1-0.2,0.1-0.4,0.1h-0.9c-0.1,0-0.3,0-0.4-0.1
		c-0.1-0.1-0.1-0.2-0.1-0.4v-6.1l-1.4-9.6c0-0.1,0-0.2,0.1-0.2c0.1-0.1,0.1-0.1,0.2-0.1h0.8c0.3,0,0.5,0.1,0.6,0.2
		c0.1,0.2,0.2,0.4,0.2,0.6l0.5,5.9l0.5-5.9c0-0.2,0.1-0.4,0.2-0.6c0.1-0.2,0.3-0.2,0.6-0.2h0.8c0.1,0,0.2,0,0.2,0.1
		c0.1,0.1,0.1,0.1,0.1,0.2l-1.4,9.6V65.7z"/>
	<path class="st2" d="M517.8,49.7c0.4,0,0.8,0.1,1.1,0.2c0.3,0.1,0.6,0.3,0.9,0.5c0.2,0.2,0.4,0.5,0.5,0.8s0.2,0.6,0.2,1v4
		c0,0.4-0.1,0.7-0.2,1s-0.4,0.5-0.7,0.6c0.3,0.2,0.5,0.4,0.7,0.6s0.2,0.6,0.2,1v4.4c0,0.7-0.2,1.3-0.7,1.8c-0.5,0.4-1.1,0.6-2,0.6
		h-2.4c-0.1,0-0.2,0-0.2-0.1c0-0.1-0.1-0.1-0.1-0.2V50c0-0.1,0-0.2,0.1-0.2c0-0.1,0.1-0.1,0.2-0.1H517.8z M517.8,57
		c0.3,0,0.5-0.1,0.6-0.2c0.1-0.2,0.2-0.4,0.2-0.6v-4c0-0.3-0.1-0.5-0.2-0.6c-0.1-0.2-0.3-0.2-0.6-0.2h-0.8V57H517.8z M516.9,58.6
		v6.1h0.8c0.3,0,0.5-0.1,0.6-0.2c0.1-0.2,0.2-0.4,0.2-0.6v-4.4c0-0.2-0.1-0.4-0.2-0.6c-0.1-0.2-0.3-0.2-0.6-0.2H516.9z"/>
	<path class="st2" d="M530.5,49.7c0.1,0,0.1,0,0.2,0.1c0,0.1,0.1,0.1,0.1,0.2l1.5,15.9c0,0.1,0,0.2-0.1,0.2s-0.2,0.1-0.3,0.1h-0.7
		c-0.2,0-0.4-0.1-0.6-0.2c-0.2-0.1-0.2-0.3-0.3-0.5l-0.1-2.3h-1.2l-0.1,2.3c0,0.2-0.1,0.4-0.3,0.5c-0.2,0.1-0.3,0.2-0.6,0.2h-0.7
		c-0.1,0-0.2,0-0.3-0.1s-0.1-0.2-0.1-0.2l1.5-15.9c0-0.1,0-0.1,0.1-0.2c0-0.1,0.1-0.1,0.2-0.1H530.5z M529.2,61.7h1l-0.5-8
		L529.2,61.7z"/>
	<path class="st2" d="M539.2,66.2c-0.1,0-0.2,0-0.2-0.1c0-0.1-0.1-0.1-0.1-0.2V50c0-0.1,0-0.2,0.1-0.2c0-0.1,0.1-0.1,0.2-0.1h0.8
		c0.2,0,0.4,0.1,0.6,0.2c0.1,0.1,0.2,0.3,0.2,0.5v14.2h1.7c0.2,0,0.4,0.1,0.5,0.2s0.2,0.3,0.2,0.6v0.5c0,0.1,0,0.2-0.1,0.2
		c-0.1,0-0.1,0.1-0.2,0.1H539.2z"/>
	<path class="st2" d="M550.1,66.2c-0.1,0-0.2,0-0.2-0.1c0-0.1-0.1-0.1-0.1-0.2V50c0-0.1,0-0.2,0.1-0.2c0-0.1,0.1-0.1,0.2-0.1h0.8
		c0.2,0,0.4,0.1,0.6,0.2c0.1,0.1,0.2,0.3,0.2,0.5v14.2h1.7c0.2,0,0.4,0.1,0.5,0.2s0.2,0.3,0.2,0.6v0.5c0,0.1,0,0.2-0.1,0.2
		c-0.1,0-0.1,0.1-0.2,0.1H550.1z"/>
	<path class="st2" d="M560.7,51.9c0-0.7,0.2-1.3,0.7-1.8c0.5-0.4,1.1-0.6,2-0.6c0.4,0,0.8,0.1,1.1,0.2c0.3,0.1,0.6,0.3,0.9,0.5
		c0.2,0.2,0.4,0.5,0.5,0.8s0.2,0.6,0.2,1V64c0,0.7-0.2,1.3-0.7,1.8c-0.5,0.4-1.1,0.6-2,0.6c-0.4,0-0.8-0.1-1.1-0.2
		c-0.3-0.1-0.6-0.3-0.8-0.5c-0.2-0.2-0.4-0.5-0.5-0.8c-0.1-0.3-0.2-0.6-0.2-1V51.9z M564.2,51.9c0-0.3-0.1-0.5-0.2-0.6
		c-0.1-0.2-0.3-0.2-0.6-0.2c-0.3,0-0.5,0.1-0.6,0.2c-0.1,0.2-0.2,0.4-0.2,0.6V64c0,0.3,0.1,0.5,0.2,0.6c0.1,0.2,0.3,0.2,0.6,0.2
		c0.3,0,0.5-0.1,0.6-0.2c0.1-0.2,0.2-0.4,0.2-0.6V51.9z"/>
	<path class="st2" d="M578.4,64c0,0.7-0.2,1.3-0.7,1.8c-0.5,0.4-1.1,0.6-2,0.6c-0.4,0-0.8-0.1-1.1-0.2c-0.3-0.1-0.6-0.3-0.8-0.5
		c-0.2-0.2-0.4-0.5-0.5-0.8c-0.1-0.3-0.2-0.6-0.2-1V50c0-0.1,0-0.2,0.1-0.2c0-0.1,0.1-0.1,0.2-0.1h0.8c0.2,0,0.4,0.1,0.6,0.2
		c0.1,0.1,0.2,0.3,0.2,0.5V64c0,0.3,0.1,0.5,0.2,0.6c0.1,0.2,0.3,0.2,0.6,0.2c0.3,0,0.5-0.1,0.6-0.2c0.1-0.2,0.2-0.4,0.2-0.6V50.4
		c0-0.2,0.1-0.4,0.2-0.5c0.1-0.1,0.3-0.2,0.6-0.2h0.8c0.1,0,0.2,0,0.2,0.1c0,0.1,0.1,0.1,0.1,0.2V64z"/>
</g>
<g>
	<path class="st3" d="M444.7,45.7l-23.8-30.9c0,0,0,0-0.1-0.1c9,0,159.2,0,159.2,0"/>
	<path class="st3" d="M556.1,45.7l23.8-30.9c0,0,0,0,0.1-0.1c-9,0-159.2,0-159.2,0"/>
</g>
<polygon class="st2" points="502.3,123.9 496.9,116.8 502.3,117.5 506.4,118.5 "/>
<line class="st4" x1="466.5" y1="73.1" x2="502.2" y2="119.5"/>
<line class="st4" x1="538.2" y1="73.1" x2="502.5" y2="119.5"/>
<g>
	<path class="st5" d="M209.5,78.6h-74.2c-6.6,0-12-5.4-12-12v-4.9c0-6.6,5.4-12,12-12h74.2c6.6,0,12,5.4,12,12v4.9
		C221.5,73.2,216.1,78.6,209.5,78.6z"/>
	<g>
		<path class="st0" d="M132.8,72.5V55.1h7.4c0.8,0,1.5,0.2,2.2,0.5c0.7,0.3,1.3,0.8,1.7,1.3c0.5,0.5,0.9,1.2,1.1,1.9
			c0.3,0.7,0.4,1.4,0.4,2.1c0,0.7-0.1,1.4-0.4,2.1c-0.3,0.7-0.6,1.3-1.1,1.8c-0.5,0.5-1,1-1.7,1.3c-0.7,0.3-1.4,0.5-2.2,0.5h-4.1
			v5.8H132.8z M136.2,63.7h3.9c0.6,0,1.1-0.3,1.6-0.8c0.4-0.5,0.6-1.2,0.6-2.1c0-0.4-0.1-0.8-0.2-1.2c-0.1-0.4-0.3-0.6-0.5-0.9
			c-0.2-0.2-0.5-0.4-0.7-0.5c-0.3-0.1-0.6-0.2-0.9-0.2h-3.8V63.7z"/>
		<path class="st0" d="M162.6,55.1v17.3h-3.3v-7.4h-7.9v7.4H148V55.1h3.4v7h7.9v-7H162.6z"/>
		<path class="st0" d="M173.6,72.6c-1.3,0-2.4-0.2-3.5-0.7c-1-0.5-1.9-1.2-2.7-2s-1.3-1.8-1.7-2.8s-0.6-2.1-0.6-3.3
			c0-1.2,0.2-2.3,0.6-3.3c0.4-1.1,1-2,1.8-2.8c0.8-0.8,1.7-1.5,2.7-1.9c1-0.5,2.2-0.7,3.4-0.7c1.3,0,2.4,0.3,3.4,0.8
			c1,0.5,1.9,1.2,2.7,2c0.7,0.8,1.3,1.8,1.7,2.8s0.6,2.1,0.6,3.2c0,1.2-0.2,2.3-0.6,3.3c-0.4,1.1-1,2-1.8,2.8
			c-0.7,0.8-1.6,1.4-2.7,1.9C176,72.4,174.9,72.6,173.6,72.6z M168.6,63.8c0,0.7,0.1,1.5,0.3,2.2c0.2,0.7,0.6,1.3,1,1.9s1,1,1.6,1.3
			c0.6,0.3,1.3,0.5,2.1,0.5c0.8,0,1.5-0.2,2.2-0.5c0.6-0.3,1.2-0.8,1.6-1.3s0.8-1.2,1-1.9s0.3-1.4,0.3-2.1c0-0.7-0.1-1.5-0.4-2.2
			c-0.2-0.7-0.6-1.3-1-1.9s-1-1-1.6-1.3c-0.6-0.3-1.3-0.5-2.1-0.5c-0.8,0-1.5,0.2-2.2,0.5c-0.6,0.3-1.2,0.8-1.6,1.3
			c-0.4,0.5-0.7,1.2-1,1.9C168.7,62.4,168.6,63.1,168.6,63.8z"/>
		<path class="st0" d="M196.9,58.1h-5.5v14.4H188V58.1h-5.5v-3h14.4V58.1z"/>
		<path class="st0" d="M205.6,72.6c-1.3,0-2.4-0.2-3.5-0.7c-1-0.5-1.9-1.2-2.7-2s-1.3-1.8-1.7-2.8s-0.6-2.1-0.6-3.3
			c0-1.2,0.2-2.3,0.6-3.3c0.4-1.1,1-2,1.8-2.8c0.8-0.8,1.7-1.5,2.7-1.9c1-0.5,2.2-0.7,3.4-0.7c1.3,0,2.4,0.3,3.4,0.8
			c1,0.5,1.9,1.2,2.7,2c0.7,0.8,1.3,1.8,1.7,2.8s0.6,2.1,0.6,3.2c0,1.2-0.2,2.3-0.6,3.3c-0.4,1.1-1,2-1.8,2.8
			c-0.7,0.8-1.6,1.4-2.7,1.9C208,72.4,206.8,72.6,205.6,72.6z M200.6,63.8c0,0.7,0.1,1.5,0.3,2.2c0.2,0.7,0.6,1.3,1,1.9s1,1,1.6,1.3
			c0.6,0.3,1.3,0.5,2.1,0.5c0.8,0,1.5-0.2,2.2-0.5c0.6-0.3,1.2-0.8,1.6-1.3s0.8-1.2,1-1.9s0.3-1.4,0.3-2.1c0-0.7-0.1-1.5-0.4-2.2
			c-0.2-0.7-0.6-1.3-1-1.9s-1-1-1.6-1.3c-0.6-0.3-1.3-0.5-2.1-0.5c-0.8,0-1.5,0.2-2.2,0.5c-0.6,0.3-1.2,0.8-1.6,1.3
			c-0.4,0.5-0.7,1.2-1,1.9C200.7,62.4,200.6,63.1,200.6,63.8z"/>
	</g>
</g>
<g>
	<path class="st6" d="M354.6,78.6h-74.2c-6.6,0-12-5.4-12-12v-4.9c0-6.6,5.4-12,12-12h74.2c6.6,0,12,5.4,12,12v4.9
		C366.6,73.2,361.2,78.6,354.6,78.6z"/>
	<g>
		<path class="st2" d="M283.5,55.1l4.7,13.1l4.6-13.1h3.5l-6.8,17.3h-2.8l-6.8-17.3H283.5z"/>
		<path class="st2" d="M298.2,72.5V55.1h3.4v17.3H298.2z"/>
		<path class="st2" d="M305.2,72.5V55.1h6.3c1.4,0,2.7,0.2,3.7,0.7c1.1,0.5,2,1.1,2.7,1.9c0.7,0.8,1.3,1.7,1.6,2.7
			c0.4,1.1,0.5,2.2,0.5,3.4c0,1.3-0.2,2.5-0.6,3.6c-0.4,1.1-1,2-1.7,2.7c-0.7,0.8-1.6,1.3-2.7,1.8s-2.2,0.6-3.5,0.6H305.2z
			 M316.7,63.8c0-0.8-0.1-1.6-0.3-2.3c-0.2-0.7-0.6-1.3-1-1.8c-0.4-0.5-1-0.9-1.6-1.2c-0.6-0.3-1.4-0.4-2.2-0.4h-2.9v11.4h2.9
			c0.8,0,1.6-0.1,2.2-0.4c0.6-0.3,1.2-0.7,1.6-1.2c0.4-0.5,0.8-1.1,1-1.8C316.5,65.4,316.7,64.6,316.7,63.8z"/>
		<path class="st2" d="M334.7,69.5v3h-12V55.1h11.8v3h-8.5v4.2h7.3V65h-7.3v4.5H334.7z"/>
		<path class="st2" d="M344.4,72.6c-1.3,0-2.4-0.2-3.5-0.7c-1-0.5-1.9-1.2-2.7-2s-1.3-1.8-1.7-2.8s-0.6-2.1-0.6-3.3
			c0-1.2,0.2-2.3,0.6-3.3c0.4-1.1,1-2,1.8-2.8c0.8-0.8,1.7-1.5,2.7-1.9c1-0.5,2.2-0.7,3.4-0.7c1.3,0,2.4,0.3,3.4,0.8
			c1,0.5,1.9,1.2,2.7,2c0.7,0.8,1.3,1.8,1.7,2.8s0.6,2.1,0.6,3.2c0,1.2-0.2,2.3-0.6,3.3c-0.4,1.1-1,2-1.8,2.8
			c-0.7,0.8-1.6,1.4-2.7,1.9C346.8,72.4,345.6,72.6,344.4,72.6z M339.4,63.8c0,0.7,0.1,1.5,0.3,2.2c0.2,0.7,0.6,1.3,1,1.9
			s1,1,1.6,1.3c0.6,0.3,1.3,0.5,2.1,0.5c0.8,0,1.5-0.2,2.2-0.5c0.6-0.3,1.2-0.8,1.6-1.3s0.8-1.2,1-1.9s0.3-1.4,0.3-2.1
			c0-0.7-0.1-1.5-0.4-2.2c-0.2-0.7-0.6-1.3-1-1.9s-1-1-1.6-1.3c-0.6-0.3-1.3-0.5-2.1-0.5c-0.8,0-1.5,0.2-2.2,0.5
			c-0.6,0.3-1.2,0.8-1.6,1.3c-0.4,0.5-0.7,1.2-1,1.9C339.5,62.4,339.4,63.1,339.4,63.8z"/>
	</g>
</g>
<g>
	<path class="st6" d="M727.9,78.8h-74.2c-6.6,0-12-5.4-12-12v-4.9c0-6.6,5.4-12,12-12h74.2c6.6,0,12,5.4,12,12v4.9
		C739.9,73.4,734.5,78.8,727.9,78.8z"/>
	<g>
		<path class="st2" d="M655.5,55.3h3l6.6,17.3h-3.5l-1.6-4.3h-6.1l-1.6,4.3h-3.5L655.5,55.3z M659.4,66l-2.4-6.8l-2.5,6.8H659.4z"/>
		<path class="st2" d="M680.9,68.2c0,0.7-0.1,1.4-0.4,1.9s-0.7,1-1.2,1.4c-0.5,0.4-1.1,0.7-1.8,0.9c-0.7,0.2-1.4,0.3-2.2,0.3H667
			V55.3h9.3c0.6,0,1.1,0.1,1.6,0.4c0.5,0.3,0.9,0.6,1.2,1c0.3,0.4,0.6,0.9,0.8,1.4c0.2,0.5,0.3,1.1,0.3,1.6c0,0.8-0.2,1.6-0.6,2.4
			s-1,1.3-1.9,1.6c1,0.3,1.8,0.8,2.4,1.6C680.6,66.1,680.9,67.1,680.9,68.2z M670.3,58.2v4.4h4.5c0.6,0,1.1-0.2,1.5-0.6
			c0.4-0.4,0.6-0.9,0.6-1.6c0-0.7-0.2-1.2-0.5-1.6s-0.8-0.6-1.4-0.6H670.3z M677.5,67.6c0-0.3-0.1-0.6-0.2-0.9
			c-0.1-0.3-0.2-0.5-0.4-0.7c-0.2-0.2-0.4-0.4-0.6-0.5c-0.2-0.1-0.5-0.2-0.8-0.2h-5.2v4.6h5c0.3,0,0.6-0.1,0.9-0.2
			c0.3-0.1,0.5-0.3,0.7-0.5c0.2-0.2,0.3-0.4,0.5-0.7S677.5,67.9,677.5,67.6z"/>
		<path class="st2" d="M691,72.8c-1.3,0-2.4-0.2-3.5-0.7c-1-0.5-1.9-1.2-2.7-2c-0.7-0.8-1.3-1.8-1.7-2.8s-0.6-2.1-0.6-3.3
			c0-1.2,0.2-2.3,0.6-3.3c0.4-1.1,1-2,1.8-2.8c0.8-0.8,1.7-1.5,2.7-1.9c1-0.5,2.2-0.7,3.4-0.7c1.3,0,2.4,0.3,3.4,0.8
			c1,0.5,1.9,1.2,2.7,2c0.7,0.8,1.3,1.8,1.7,2.8c0.4,1.1,0.6,2.1,0.6,3.2c0,1.2-0.2,2.3-0.6,3.3s-1,2-1.8,2.8
			c-0.7,0.8-1.6,1.4-2.7,1.9S692.2,72.8,691,72.8z M685.9,64c0,0.7,0.1,1.5,0.3,2.2c0.2,0.7,0.6,1.3,1,1.9s1,1,1.6,1.3
			c0.6,0.3,1.3,0.5,2.1,0.5c0.8,0,1.5-0.2,2.2-0.5c0.6-0.3,1.2-0.8,1.6-1.3s0.8-1.2,1-1.9c0.2-0.7,0.3-1.4,0.3-2.1
			c0-0.7-0.1-1.5-0.4-2.2c-0.2-0.7-0.6-1.3-1-1.9s-1-1-1.6-1.3c-0.6-0.3-1.3-0.5-2.1-0.5c-0.8,0-1.5,0.2-2.2,0.5
			c-0.6,0.3-1.2,0.8-1.6,1.3c-0.4,0.5-0.7,1.2-1,1.9C686,62.6,685.9,63.3,685.9,64z"/>
		<path class="st2" d="M709.4,69.8c0.8,0,1.5-0.2,2-0.5c0.5-0.3,1-0.7,1.3-1.3c0.3-0.5,0.6-1.1,0.7-1.8c0.1-0.7,0.2-1.4,0.2-2.1
			v-8.8h3.3v8.8c0,1.2-0.1,2.3-0.4,3.3c-0.3,1-0.7,2-1.3,2.7c-0.6,0.8-1.4,1.4-2.4,1.9c-1,0.5-2.1,0.7-3.4,0.7
			c-1.4,0-2.6-0.2-3.5-0.7c-1-0.5-1.8-1.1-2.4-1.9c-0.6-0.8-1-1.7-1.3-2.7s-0.4-2.1-0.4-3.3v-8.8h3.4v8.8c0,0.7,0.1,1.4,0.2,2.1
			c0.1,0.7,0.4,1.3,0.7,1.8c0.3,0.5,0.8,0.9,1.3,1.3C707.9,69.7,708.6,69.8,709.4,69.8z"/>
		<path class="st2" d="M733.3,58.3h-5.5v14.4h-3.3V58.3h-5.5v-3h14.4V58.3z"/>
	</g>
</g>
<g>
	<path class="st6" d="M872.9,78.8h-74.2c-6.6,0-12-5.4-12-12v-4.9c0-6.6,5.4-12,12-12h74.2c6.6,0,12,5.4,12,12v4.9
		C884.9,73.4,879.5,78.8,872.9,78.8z"/>
	<g>
		<path class="st2" d="M791.8,64.5c0-0.8,0.1-1.6,0.4-2.4c0.3-0.8,0.7-1.5,1.3-2.1c0.6-0.6,1.3-1.1,2.1-1.5c0.8-0.4,1.7-0.6,2.8-0.6
			c1.2,0,2.3,0.3,3.2,0.8c0.9,0.5,1.6,1.2,2,2.1l-2,1.4c-0.2-0.4-0.4-0.7-0.6-1c-0.3-0.3-0.5-0.5-0.8-0.6c-0.3-0.2-0.6-0.3-0.9-0.3
			c-0.3-0.1-0.6-0.1-0.9-0.1c-0.7,0-1.2,0.1-1.7,0.4c-0.5,0.3-0.9,0.6-1.2,1c-0.3,0.4-0.6,0.9-0.7,1.4c-0.2,0.5-0.2,1.1-0.2,1.6
			c0,0.6,0.1,1.2,0.3,1.7c0.2,0.5,0.5,1,0.8,1.4s0.8,0.7,1.2,1c0.5,0.3,1,0.4,1.6,0.4c0.3,0,0.6,0,0.9-0.1c0.3-0.1,0.6-0.2,0.9-0.4
			c0.3-0.2,0.6-0.4,0.8-0.6c0.3-0.3,0.5-0.6,0.6-0.9l2.1,1.2c-0.2,0.5-0.5,0.9-0.9,1.3c-0.4,0.4-0.8,0.7-1.3,1
			c-0.5,0.3-1,0.5-1.6,0.6s-1.1,0.2-1.7,0.2c-1,0-1.8-0.2-2.6-0.6c-0.8-0.4-1.5-0.9-2-1.6c-0.6-0.6-1-1.4-1.3-2.2
			C792,66.2,791.8,65.4,791.8,64.5z"/>
		<path class="st2" d="M811.1,71.4c-1,0-1.9-0.2-2.7-0.6c-0.8-0.4-1.5-0.9-2.1-1.5c-0.6-0.6-1-1.4-1.3-2.2c-0.3-0.8-0.5-1.7-0.5-2.5
			c0-0.9,0.2-1.7,0.5-2.6s0.8-1.5,1.4-2.2s1.3-1.1,2.1-1.5c0.8-0.4,1.7-0.6,2.6-0.6c1,0,1.8,0.2,2.6,0.6c0.8,0.4,1.5,0.9,2,1.6
			c0.6,0.6,1,1.4,1.3,2.2c0.3,0.8,0.5,1.6,0.5,2.5c0,0.9-0.2,1.7-0.5,2.6c-0.3,0.8-0.8,1.5-1.4,2.1c-0.6,0.6-1.3,1.1-2.1,1.5
			C812.9,71.2,812.1,71.4,811.1,71.4z M807.3,64.6c0,0.6,0.1,1.1,0.3,1.7c0.2,0.5,0.4,1,0.8,1.4c0.3,0.4,0.7,0.7,1.2,1
			c0.5,0.3,1,0.4,1.6,0.4c0.6,0,1.2-0.1,1.7-0.4c0.5-0.3,0.9-0.6,1.2-1s0.6-0.9,0.8-1.4s0.3-1.1,0.3-1.6c0-0.6-0.1-1.1-0.3-1.7
			c-0.2-0.5-0.4-1-0.8-1.4s-0.7-0.7-1.2-1c-0.5-0.2-1-0.4-1.6-0.4c-0.6,0-1.2,0.1-1.7,0.4c-0.5,0.3-0.9,0.6-1.2,1
			c-0.3,0.4-0.6,0.9-0.7,1.4C807.3,63.5,807.3,64,807.3,64.6z"/>
		<path class="st2" d="M822.3,62.7v8.6h-2.6V57.9h2l7,8.8v-8.8h2.6v13.4h-2.1L822.3,62.7z"/>
		<path class="st2" d="M844.1,60.2h-4.3v11.1h-2.6V60.2h-4.3v-2.3h11.1V60.2z"/>
		<path class="st2" d="M848.2,57.9h2.3l5.1,13.4h-2.7l-1.2-3.3H847l-1.2,3.3h-2.7L848.2,57.9z M851.2,66.1l-1.8-5.3l-1.9,5.3H851.2z
			"/>
		<path class="st2" d="M855.8,64.5c0-0.8,0.1-1.6,0.4-2.4c0.3-0.8,0.7-1.5,1.3-2.1c0.6-0.6,1.3-1.1,2.1-1.5c0.8-0.4,1.7-0.6,2.8-0.6
			c1.2,0,2.3,0.3,3.2,0.8c0.9,0.5,1.6,1.2,2,2.1l-2,1.4c-0.2-0.4-0.4-0.7-0.6-1c-0.3-0.3-0.5-0.5-0.8-0.6c-0.3-0.2-0.6-0.3-0.9-0.3
			c-0.3-0.1-0.6-0.1-0.9-0.1c-0.7,0-1.2,0.1-1.7,0.4c-0.5,0.3-0.9,0.6-1.2,1c-0.3,0.4-0.6,0.9-0.7,1.4c-0.2,0.5-0.2,1.1-0.2,1.6
			c0,0.6,0.1,1.2,0.3,1.7c0.2,0.5,0.5,1,0.8,1.4s0.8,0.7,1.2,1c0.5,0.3,1,0.4,1.6,0.4c0.3,0,0.6,0,0.9-0.1c0.3-0.1,0.6-0.2,0.9-0.4
			c0.3-0.2,0.6-0.4,0.8-0.6c0.3-0.3,0.5-0.6,0.6-0.9l2.1,1.2c-0.2,0.5-0.5,0.9-0.9,1.3c-0.4,0.4-0.8,0.7-1.3,1
			c-0.5,0.3-1,0.5-1.6,0.6s-1.1,0.2-1.7,0.2c-1,0-1.8-0.2-2.6-0.6c-0.8-0.4-1.5-0.9-2-1.6c-0.6-0.6-1-1.4-1.3-2.2
			C855.9,66.2,855.8,65.4,855.8,64.5z"/>
		<path class="st2" d="M879.4,60.2h-4.3v11.1h-2.6V60.2h-4.3v-2.3h11.1V60.2z"/>
	</g>
</g>
</svg>
